<svg width="274" height="118" viewBox="0 0 274 118" fill="none" xmlns="http://www.w3.org/2000/svg">
<g opacity="0.3">
<mask id="mask0" mask-type="alpha" maskUnits="userSpaceOnUse" x="0" y="0" width="274" height="118">
<rect width="273.263" height="118" fill="#C4C4C4"/>
</mask>
<g mask="url(#mask0)">
<path opacity="0.1" d="M44.8211 59.6626C22.5626 59.0795 1.39615 106.58 -4.33215 118V133.979H282.618V43.8989C256.063 43.021 247.665 23.2156 227.309 23.2156C206.953 23.2156 188.574 51.8868 178.209 66.9514C169.698 80.3637 158.842 83.2308 154.477 82.9878C134.183 83.571 118.744 53.5878 113.561 38.5233C108.978 21.6119 103.819 18.1133 101.286 18.1133C97.0359 18.1024 90.6476 23.07 84.101 39.9812C77.5543 56.8923 67.1888 61.6061 62.8244 61.8491C56.7198 62.1889 49.4583 59.6625 44.8211 59.6626Z" fill="url(#paint0_linear)"/>
<path d="M-3.99093 55.0231C4.95639 51.7751 11.5799 51.3443 16.863 52.4393C22.1469 53.5344 26.206 56.1786 30.0022 59.3021C37.5121 65.4813 44.1623 73.8539 57.0737 73.8539V71.8539C45.0844 71.8539 39.171 64.2563 31.2729 57.7577C27.3651 54.5423 23.009 51.6706 17.2689 50.4809C11.528 49.291 4.51868 49.8063 -4.67338 53.1431L-3.99093 55.0231ZM57.0737 73.8539C63.4364 73.8539 67.8424 72.6231 71.3122 70.6722C74.7566 68.7356 77.2106 66.1212 79.6706 63.5399C82.1472 60.9412 84.66 58.3391 88.3032 56.1771C91.9361 54.0211 96.7461 52.2743 103.813 51.5107L103.599 49.5223C96.2913 50.3118 91.1976 52.1336 87.2825 54.4571C83.3776 56.7745 80.6981 59.5627 78.2228 62.1601C75.731 64.7748 73.4737 67.1624 70.332 68.9288C67.2159 70.6809 63.1613 71.8539 57.0737 71.8539V73.8539ZM103.813 51.5107C117.72 50.0082 129.127 58.3268 140.198 67.3621C145.683 71.8382 151.094 76.4925 156.583 80.007C162.082 83.5285 167.778 85.9878 173.881 85.9878V83.9878C168.325 83.9878 163.014 81.7499 157.661 78.3228C152.298 74.8886 147.014 70.3427 141.463 65.8126C130.463 56.8358 118.44 47.9188 103.599 49.5223L103.813 51.5107ZM173.881 85.9878C180.099 85.9878 185.395 82.6342 189.914 77.8258C194.433 73.0172 198.282 66.6429 201.618 60.3457C203.288 57.1915 204.838 54.0396 206.282 51.0982C207.729 48.1501 209.065 45.4221 210.319 43.0877C211.578 40.7445 212.725 38.8535 213.784 37.5584C214.892 36.2027 215.69 35.7676 216.212 35.7676V33.7676C214.697 33.7676 213.372 34.9019 212.235 36.2926C211.049 37.7438 209.828 39.7763 208.558 42.1413C207.282 44.515 205.929 47.2799 204.487 50.2169C203.042 53.1607 201.504 56.2864 199.85 59.4097C196.536 65.6676 192.787 71.8483 188.457 76.4561C184.126 81.064 179.321 83.9878 173.881 83.9878V85.9878ZM216.212 35.7676C217.577 35.7676 218.586 36.7774 219.613 39.1442C220.11 40.2881 220.563 41.6371 221.051 43.1339C221.535 44.6161 222.05 46.2337 222.662 47.8517C223.882 51.0823 225.526 54.4353 228.228 56.9787C230.962 59.5522 234.707 61.2289 239.981 61.2289V59.2289C235.181 59.2289 231.937 57.7229 229.599 55.5224C227.229 53.2918 225.717 50.2795 224.533 47.1448C223.941 45.5801 223.442 44.015 222.952 42.5135C222.467 41.0265 221.988 39.5907 221.448 38.3477C220.403 35.9404 218.922 33.7676 216.212 33.7676V35.7676ZM239.981 61.2289C250.332 61.2289 258.721 56.9041 266.893 52.6423C275.118 48.3531 283.125 44.1285 292.98 43.8445L292.923 41.8454C282.537 42.1446 274.132 46.6119 265.968 50.8689C257.753 55.1533 249.776 59.2289 239.981 59.2289V61.2289Z" fill="#ED5C0C"/>
<path d="M44.8192 60.1883L44.7925 61.1879C44.8014 61.1882 44.8103 61.1883 44.8193 61.1883L44.8192 60.1883ZM62.7001 62.4084L62.757 63.4068L62.7001 62.4084ZM100.9 18L100.898 19L100.9 19L100.9 18ZM113.092 38.7239L112.125 38.9801C112.131 39.0012 112.137 39.0222 112.144 39.0429L113.092 38.7239ZM153.73 83.8722L153.787 82.8738C153.758 82.8722 153.73 82.8718 153.701 82.8726L153.73 83.8722ZM177.3 67.5891L176.471 67.0308C176.464 67.041 176.457 67.0513 176.451 67.0618L177.3 67.5891ZM-12.6022 138.44C-9.74499 132.617 -0.718634 113.073 10.355 95.0472C15.8933 86.0317 21.9162 77.4424 27.9045 71.1557C30.8982 68.0127 33.8576 65.4728 36.7173 63.7416C39.5797 62.0088 42.2845 61.1208 44.7925 61.1879L44.846 59.1886C41.8271 59.1078 38.7421 60.178 35.6816 62.0307C32.6184 63.8851 29.5218 66.558 26.4563 69.7762C20.3261 76.2119 14.2177 84.9383 8.65083 94.0004C-2.48602 112.129 -11.5656 131.787 -14.3978 137.56L-12.6022 138.44ZM44.8193 61.1883C47.0003 61.1882 49.8248 61.7995 53.0258 62.41C56.1569 63.0071 59.5875 63.5872 62.757 63.4068L62.6433 61.41C59.7497 61.5747 56.5427 61.0446 53.4005 60.4454C50.3283 59.8595 47.2439 59.1882 44.8192 59.1883L44.8193 61.1883ZM62.757 63.4068C67.6006 63.1311 78.171 57.9781 84.7673 40.5583L82.8969 39.8501C76.4889 56.7727 66.4692 61.1922 62.6433 61.41L62.757 63.4068ZM84.7673 40.5583C87.9965 32.0304 91.158 26.5947 93.98 23.3105C96.8121 20.0145 99.2002 18.9956 100.898 19L100.903 17C98.3792 16.9934 95.4843 18.491 92.4631 22.007C89.4318 25.5348 86.1698 31.2067 82.8969 39.8501L84.7673 40.5583ZM100.9 19C101.687 19 103.335 19.5825 105.418 22.5033C107.485 25.4005 109.865 30.4528 112.125 38.9801L114.058 38.4677C111.767 29.8235 109.309 24.5138 107.047 21.3419C104.801 18.1937 102.629 17 100.9 17L100.9 19ZM112.144 39.0429C114.742 46.7616 119.905 58.2971 126.979 67.8512C134.014 77.3521 143.159 85.1832 153.759 84.8718L153.701 82.8726C144.145 83.1533 135.544 76.0584 128.586 66.6611C121.667 57.317 116.59 45.9824 114.04 38.405L112.144 39.0429ZM153.673 84.8706C158.419 85.1407 169.53 82.0053 178.15 68.1165L176.451 67.0618C168.166 80.4101 157.71 83.0971 153.787 82.8738L153.673 84.8706ZM178.13 68.1475C183.297 60.4712 190.386 49.4449 198.701 40.3226C207.056 31.1577 216.416 24.1808 226.066 24.1808V22.1808C215.499 22.1808 205.624 29.76 197.223 38.9752C188.784 48.233 181.599 59.4109 176.471 67.0308L178.13 68.1475ZM226.066 24.1808C235.826 24.1808 242.711 29.0084 250.679 34.1857C258.618 39.3438 267.492 44.7262 280.966 45.1816L281.034 43.1828C268.133 42.7467 259.649 37.6284 251.769 32.5086C243.919 27.4081 236.525 22.1808 226.066 22.1808V24.1808Z" fill="#2979E4"/>
<path opacity="0.16" d="M196.408 45.6004C198.172 45.6004 199.809 45.0723 201.028 44.1699C202.247 43.2675 203.101 41.9409 203.101 40.3862C203.101 38.8314 202.247 37.5048 201.028 36.6025C199.809 35.7 198.172 35.1719 196.408 35.1719C194.643 35.1719 193.006 35.7 191.787 36.6025C190.568 37.5048 189.715 38.8314 189.715 40.3862C189.715 41.9409 190.568 43.2675 191.787 44.1699C193.006 45.0723 194.643 45.6004 196.408 45.6004Z" stroke="#3751FF" stroke-width="2"/>
<g filter="url(#filter0_d)">
<mask id="path-6-inside-1" fill="white">
<ellipse cx="196.408" cy="40.3861" rx="3.32091" ry="2.45833"/>
</mask>
<ellipse cx="196.408" cy="40.3861" rx="3.32091" ry="2.45833" fill="white"/>
<path d="M195.729 40.3861C195.729 39.5009 196.222 39.0234 196.376 38.9094C196.531 38.7949 196.555 38.8444 196.408 38.8444V46.8444C198.095 46.8444 199.779 46.3436 201.136 45.3393C202.492 44.3356 203.729 42.6289 203.729 40.3861H195.729ZM196.408 38.8444C196.26 38.8444 196.285 38.7949 196.439 38.9094C196.593 39.0234 197.087 39.5009 197.087 40.3861H189.087C189.087 42.6289 190.324 44.3356 191.68 45.3393C193.036 46.3436 194.721 46.8444 196.408 46.8444V38.8444ZM197.087 40.3861C197.087 41.2712 196.593 41.7488 196.439 41.8627C196.285 41.9773 196.26 41.9277 196.408 41.9277V33.9277C194.721 33.9277 193.036 34.4285 191.68 35.4328C190.324 36.4365 189.087 38.1432 189.087 40.3861H197.087ZM196.408 41.9277C196.555 41.9277 196.531 41.9773 196.376 41.8627C196.222 41.7488 195.729 41.2712 195.729 40.3861H203.729C203.729 38.1432 202.492 36.4365 201.136 35.4328C199.779 34.4285 198.095 33.9277 196.408 33.9277V41.9277Z" fill="#007EFF" mask="url(#path-6-inside-1)"/>
</g>
<g filter="url(#filter1_d)">
<mask id="path-8-outside-2" maskUnits="userSpaceOnUse" x="180.752" y="18.6113" width="31" height="13" fill="black">
<rect fill="white" x="180.752" y="18.6113" width="31" height="13"/>
<path fill-rule="evenodd" clip-rule="evenodd" d="M184.252 19.6113H208.252C209.633 19.6113 210.752 20.7306 210.752 22.1113C210.752 23.492 209.633 24.6113 208.252 24.6113H203.752L197.012 30.3882C196.863 30.5166 196.642 30.5166 196.492 30.3882L189.752 24.6113H184.252C182.871 24.6113 181.752 23.492 181.752 22.1113C181.752 20.7306 182.871 19.6113 184.252 19.6113Z"/>
</mask>
<path fill-rule="evenodd" clip-rule="evenodd" d="M184.252 19.6113H208.252C209.633 19.6113 210.752 20.7306 210.752 22.1113C210.752 23.492 209.633 24.6113 208.252 24.6113H203.752L197.012 30.3882C196.863 30.5166 196.642 30.5166 196.492 30.3882L189.752 24.6113H184.252C182.871 24.6113 181.752 23.492 181.752 22.1113C181.752 20.7306 182.871 19.6113 184.252 19.6113Z" fill="white"/>
<path d="M203.752 24.6113V24.1113H203.567L203.427 24.2317L203.752 24.6113ZM197.012 30.3882L197.338 30.7678L197.012 30.3882ZM196.492 30.3882L196.166 30.7678L196.492 30.3882ZM189.752 24.6113L190.077 24.2317L189.937 24.1113H189.752V24.6113ZM208.252 19.1113H184.252V20.1113H208.252V19.1113ZM211.252 22.1113C211.252 20.4545 209.909 19.1113 208.252 19.1113V20.1113C209.357 20.1113 210.252 21.0068 210.252 22.1113H211.252ZM208.252 25.1113C209.909 25.1113 211.252 23.7682 211.252 22.1113H210.252C210.252 23.2159 209.357 24.1113 208.252 24.1113V25.1113ZM203.752 25.1113H208.252V24.1113H203.752V25.1113ZM203.427 24.2317L196.687 30.0086L197.338 30.7678L204.077 24.991L203.427 24.2317ZM196.687 30.0086C196.724 29.9765 196.78 29.9765 196.817 30.0086L196.166 30.7678C196.503 31.0567 197.001 31.0567 197.338 30.7678L196.687 30.0086ZM196.817 30.0086L190.077 24.2317L189.427 24.991L196.166 30.7678L196.817 30.0086ZM184.252 25.1113H189.752V24.1113H184.252V25.1113ZM181.252 22.1113C181.252 23.7682 182.595 25.1113 184.252 25.1113V24.1113C183.148 24.1113 182.252 23.2159 182.252 22.1113H181.252ZM184.252 19.1113C182.595 19.1113 181.252 20.4545 181.252 22.1113H182.252C182.252 21.0068 183.148 20.1113 184.252 20.1113V19.1113Z" fill="#DFE0EB" mask="url(#path-8-outside-2)"/>
</g>
</g>
</g>
<defs>
<filter id="filter0_d" x="191.087" y="36.9277" width="10.6418" height="8.91667" filterUnits="userSpaceOnUse" color-interpolation-filters="sRGB">
<feFlood flood-opacity="0" result="BackgroundImageFix"/>
<feColorMatrix in="SourceAlpha" type="matrix" values="0 0 0 0 0 0 0 0 0 0 0 0 0 0 0 0 0 0 127 0"/>
<feOffset dy="1"/>
<feGaussianBlur stdDeviation="1"/>
<feColorMatrix type="matrix" values="0 0 0 0 0.215686 0 0 0 0 0.317647 0 0 0 0 1 0 0 0 0.2 0"/>
<feBlend mode="normal" in2="BackgroundImageFix" result="effect1_dropShadow"/>
<feBlend mode="normal" in="SourceGraphic" in2="effect1_dropShadow" result="shape"/>
</filter>
<filter id="filter1_d" x="177.252" y="16.1113" width="38" height="19.8732" filterUnits="userSpaceOnUse" color-interpolation-filters="sRGB">
<feFlood flood-opacity="0" result="BackgroundImageFix"/>
<feColorMatrix in="SourceAlpha" type="matrix" values="0 0 0 0 0 0 0 0 0 0 0 0 0 0 0 0 0 0 127 0"/>
<feOffset dy="1"/>
<feGaussianBlur stdDeviation="2"/>
<feColorMatrix type="matrix" values="0 0 0 0 0 0 0 0 0 0 0 0 0 0 0 0 0 0 0.08 0"/>
<feBlend mode="normal" in2="BackgroundImageFix" result="effect1_dropShadow"/>
<feBlend mode="normal" in="SourceGraphic" in2="effect1_dropShadow" result="shape"/>
</filter>
<linearGradient id="paint0_linear" x1="-0.186997" y1="79.1936" x2="273.312" y2="79.4997" gradientUnits="userSpaceOnUse">
<stop stop-color="#3751FF"/>
<stop offset="1" stop-color="#3751FF" stop-opacity="0"/>
</linearGradient>
</defs>
</svg>
