<svg width="80" height="80" viewBox="0 0 80 80" fill="none" xmlns="http://www.w3.org/2000/svg">
<path d="M0 6C0 2.68629 2.68629 0 6 0H74C77.3137 0 80 2.68629 80 6V74C80 77.3137 77.3137 80 74 80H6C2.68629 80 0 77.3137 0 74V6Z" fill="white"/>
<g clip-path="url(#clip0)">
<path d="M38.4162 57.3917C28.8136 57.3917 21 49.5784 21 39.9758C21 30.3732 28.8136 22.5596 38.4162 22.5596C41.7554 22.5596 45.0041 23.511 47.8113 25.3128C48.3624 25.6677 48.5239 26.4023 48.169 26.9549C47.813 27.5074 47.0798 27.6672 46.5273 27.3126C44.1048 25.7561 41.2994 24.9345 38.4162 24.9345C30.1228 24.9345 23.3749 31.6824 23.3749 39.9758C23.3749 48.2689 30.1228 55.0168 38.4162 55.0168C46.7093 55.0168 53.4572 48.2689 53.4572 39.9758C53.4572 39.4801 53.4335 38.9892 53.3876 38.5065C53.3244 37.8525 53.8025 37.273 54.4548 37.2098C55.1103 37.1495 55.6881 37.6246 55.7516 38.2769C55.8052 38.8359 55.8322 39.4026 55.8322 39.9758C55.8322 49.5784 48.0188 57.3917 38.4162 57.3917Z" fill="black"/>
<path d="M40.3952 43.9341C40.0913 43.9341 39.7872 43.8184 39.5562 43.5859L32.4314 36.4612C31.9675 35.997 31.9675 35.245 32.4314 34.7811C32.8952 34.3173 33.6473 34.3173 34.1111 34.7811L40.3969 41.0669L56.9721 24.4914C57.4362 24.0276 58.1883 24.0276 58.6521 24.4914C59.116 24.9553 59.116 25.7073 58.6521 26.1712L41.2359 43.5874C41.0031 43.8184 40.6993 43.9341 40.3952 43.9341Z" fill="black"/>
</g>
<defs>
<clipPath id="clip0">
<rect width="38" height="38" fill="white" transform="translate(21 21)"/>
</clipPath>
</defs>
</svg>
