<svg width="312" height="334" viewBox="0 0 312 334" fill="none" xmlns="http://www.w3.org/2000/svg">
<rect width="312" height="334" rx="10" fill="#161B22"/>
<mask id="mask0" mask-type="alpha" maskUnits="userSpaceOnUse" x="185" y="167" width="127" height="167">
<rect x="185" y="167" width="127" height="167" rx="10" fill="url(#paint0_linear)"/>
</mask>
<g mask="url(#mask0)">
<path fill-rule="evenodd" clip-rule="evenodd" d="M303.065 168.144C237.86 168.144 185 221.003 185 286.209V292.392C185 357.598 237.86 410.457 303.065 410.457C368.271 410.457 421.131 357.598 421.131 292.392V286.209C421.131 221.003 368.271 168.144 303.065 168.144ZM302.638 227.15C269.591 227.15 242.801 253.94 242.801 286.987V290.956C242.801 324.003 269.591 350.792 302.638 350.792C335.685 350.792 362.475 324.003 362.475 290.956V286.987C362.475 253.94 335.685 227.15 302.638 227.15Z" fill="url(#paint1_radial)"/>
</g>
<defs>
<linearGradient id="paint0_linear" x1="212.761" y1="179.116" x2="292.26" y2="223.834" gradientUnits="userSpaceOnUse">
<stop stop-color="#0E267D"/>
<stop offset="1" stop-color="#0E267D" stop-opacity="0"/>
</linearGradient>
<radialGradient id="paint1_radial" cx="0" cy="0" r="1" gradientUnits="userSpaceOnUse" gradientTransform="translate(217.675 202.708) rotate(50.7861) scale(135.545 134.888)">
<stop stop-color="#2DA660"/>
<stop offset="1" stop-color="#0088CC"/>
</radialGradient>
</defs>
</svg>
