<svg width="227" height="257" viewBox="0 0 227 257" fill="none" xmlns="http://www.w3.org/2000/svg">
<g opacity="0.9">
<mask id="mask0" mask-type="alpha" maskUnits="userSpaceOnUse" x="0" y="0" width="227" height="257">
<rect width="226.52" height="256.433" fill="url(#paint0_linear)"/>
</mask>
<g mask="url(#mask0)">
<path fill-rule="evenodd" clip-rule="evenodd" d="M14.8047 1.21289C5.96813 1.21289 -1.19531 8.37634 -1.19531 17.2129V433.932C-1.19531 442.768 5.96814 449.932 14.8047 449.932H405.962C414.799 449.932 421.962 442.768 421.962 433.932V17.2129C421.962 8.37633 414.799 1.21289 405.962 1.21289H14.8047ZM108.013 100.05C99.1763 100.05 92.0129 107.213 92.0129 116.05V366.015C92.0129 374.851 99.1764 382.015 108.013 382.015H341.916C350.753 382.015 357.916 374.851 357.916 366.015V116.05C357.916 107.213 350.753 100.05 341.916 100.05H108.013Z" fill="url(#paint1_linear)"/>
</g>
</g>
<defs>
<linearGradient id="paint0_linear" x1="49.5157" y1="18.604" x2="180.33" y2="104.077" gradientUnits="userSpaceOnUse">
<stop stop-color="#0E267D"/>
<stop offset="1" stop-color="#0E267D" stop-opacity="0"/>
</linearGradient>
<linearGradient id="paint1_linear" x1="197.736" y1="259.107" x2="83.7709" y2="17.8102" gradientUnits="userSpaceOnUse">
<stop stop-color="#33BBFF"/>
<stop offset="1" stop-color="#BE3434"/>
</linearGradient>
</defs>
</svg>
