<svg width="312" height="334" viewBox="0 0 312 334" fill="none" xmlns="http://www.w3.org/2000/svg">
<rect width="312" height="334" rx="10" fill="#161B22"/>
<g opacity="0.9">
<mask id="mask0" mask-type="alpha" maskUnits="userSpaceOnUse" x="161" y="167" width="151" height="167">
<rect x="161" y="167" width="150.687" height="166.541" fill="url(#paint0_linear)"/>
</mask>
<g mask="url(#mask0)">
<path fill-rule="evenodd" clip-rule="evenodd" d="M176.205 167.787C167.368 167.787 160.205 174.951 160.205 183.787V443.208C160.205 452.044 167.368 459.208 176.205 459.208H425.701C434.537 459.208 441.701 452.044 441.701 443.208V183.787C441.701 174.951 434.537 167.787 425.701 167.787H176.205ZM238.209 231.978C229.373 231.978 222.209 239.141 222.209 247.978V399.1C222.209 407.937 229.373 415.1 238.209 415.1H383.095C391.932 415.1 399.095 407.937 399.095 399.1V247.978C399.095 239.141 391.932 231.978 383.095 231.978H238.209Z" fill="url(#paint1_linear)"/>
</g>
</g>
<defs>
<linearGradient id="paint0_linear" x1="193.939" y1="179.082" x2="279.699" y2="236.478" gradientUnits="userSpaceOnUse">
<stop stop-color="#0E267D"/>
<stop offset="1" stop-color="#0E267D" stop-opacity="0"/>
</linearGradient>
<linearGradient id="paint1_linear" x1="292.539" y1="335.277" x2="219.657" y2="177.215" gradientUnits="userSpaceOnUse">
<stop stop-color="#33BBFF"/>
<stop offset="0.713542" stop-color="#BE3434"/>
<stop offset="1" stop-color="#ED560C"/>
</linearGradient>
</defs>
</svg>
