<svg width="80" height="80" viewBox="0 0 80 80" fill="none" xmlns="http://www.w3.org/2000/svg">
<path d="M0 6C0 2.68629 2.68629 0 6 0H74C77.3137 0 80 2.68629 80 6V74C80 77.3137 77.3137 80 74 80H6C2.68629 80 0 77.3137 0 74V6Z" fill="white"/>
<path d="M56.2617 41.0912H51.7589C51.1461 41.0912 50.5528 41.175 49.9881 41.329C48.8742 39.1393 46.6001 37.6348 43.9796 37.6348H36.0204C33.3999 37.6348 31.1258 39.1393 30.0119 41.329C29.4472 41.175 28.8539 41.0912 28.2411 41.0912H23.7383C20.0228 41.0912 17 44.114 17 47.8295V55.0276C17 57.2569 18.8137 59.0706 21.043 59.0706H58.957C61.1863 59.0706 63 57.2569 63 55.0276V47.8295C63 44.114 59.9772 41.0912 56.2617 41.0912ZM29.2821 44.3732V56.3754H21.043C20.2999 56.3754 19.6953 55.7708 19.6953 55.0277V47.8296C19.6953 45.6003 21.509 43.7866 23.7383 43.7866H28.2411C28.6069 43.7866 28.9612 43.8363 29.2984 43.9279C29.2887 44.0753 29.2821 44.2235 29.2821 44.3732ZM48.0226 56.3754H31.9774V44.3731C31.9774 42.1438 33.7911 40.3302 36.0204 40.3302H43.9796C46.2089 40.3302 48.0226 42.1438 48.0226 44.3731V56.3754ZM60.3047 55.0277C60.3047 55.7708 59.7001 56.3754 58.957 56.3754H50.7179V44.3731C50.7179 44.2234 50.7113 44.0751 50.7016 43.9278C51.0388 43.8363 51.3931 43.7865 51.7589 43.7865H56.2617C58.491 43.7865 60.3047 45.6002 60.3047 47.8295V55.0277Z" fill="black"/>
<path d="M25.9897 28.3662C22.688 28.3662 20.002 31.0523 20.002 34.3539C20.0019 37.6556 22.688 40.3417 25.9897 40.3417C29.2913 40.3417 31.9774 37.6556 31.9774 34.3539C31.9774 31.0523 29.2913 28.3662 25.9897 28.3662ZM25.9896 37.6464C24.1741 37.6464 22.6972 36.1694 22.6972 34.3539C22.6972 32.5385 24.1741 31.0615 25.9896 31.0615C27.8051 31.0615 29.282 32.5385 29.282 34.3539C29.282 36.1694 27.8051 37.6464 25.9896 37.6464Z" fill="black"/>
<path d="M40 20.9287C35.589 20.9287 32.0005 24.5172 32.0005 28.9282C32.0005 33.3392 35.589 36.9277 40 36.9277C44.411 36.9277 47.9995 33.3392 47.9995 28.9282C47.9995 24.5173 44.411 20.9287 40 20.9287ZM40 34.2324C37.0752 34.2324 34.6958 31.853 34.6958 28.9282C34.6958 26.0035 37.0752 23.624 40 23.624C42.9248 23.624 45.3042 26.0034 45.3042 28.9282C45.3042 31.853 42.9248 34.2324 40 34.2324Z" fill="black"/>
<path d="M54.0102 28.3662C50.7086 28.3662 48.0225 31.0523 48.0225 34.3539C48.0226 37.6556 50.7086 40.3417 54.0102 40.3417C57.3119 40.3417 59.9979 37.6556 59.9979 34.3539C59.9979 31.0523 57.3119 28.3662 54.0102 28.3662ZM54.0102 37.6464C52.1948 37.6464 50.7178 36.1694 50.7178 34.3539C50.7179 32.5385 52.1948 31.0615 54.0102 31.0615C55.8257 31.0615 57.3026 32.5385 57.3026 34.3539C57.3026 36.1694 55.8257 37.6464 54.0102 37.6464Z" fill="black"/>
</svg>
