<svg width="98" height="98" viewBox="0 0 98 98" fill="none" xmlns="http://www.w3.org/2000/svg">
<path d="M24.5777 48.5191C24.5825 42.1731 27.1048 36.0883 31.5909 31.5999C36.0771 27.1115 42.1607 24.5862 48.5067 24.5782C52.7057 24.5858 56.8294 25.6935 60.4671 27.7909C64.1047 29.8883 67.1293 32.9022 69.2396 36.5324L63.182 40.0381L83.4967 28.304C82.9739 27.3558 82.2185 26.5563 81.3015 25.9805L51.6108 8.8511C49.8969 7.86131 47.1 7.86201 45.3907 8.85265L15.7086 25.9969C14.0032 26.9835 12.6054 29.4089 12.6059 31.3853L12.6144 65.6589C12.6147 66.6492 12.9626 67.7484 13.5286 68.7223L27.7898 60.4818C25.681 56.848 24.5727 52.7204 24.5777 48.5191Z" fill="#474747"/>
<path d="M58.8739 42.524C57.8198 40.7083 56.3081 39.2007 54.4895 38.1515C52.6709 37.1024 50.609 36.5484 48.5095 36.5449C46.4106 36.5495 44.3497 37.1055 42.5333 38.1572C40.7169 39.2088 39.2087 40.7193 38.1597 42.5373C37.1107 44.3552 36.5577 46.4169 36.5562 48.5158C36.5547 50.6147 37.1047 52.6772 38.151 54.4967L48.5125 48.5124L58.8739 42.524Z" fill="#474747"/>
<path d="M83.4966 28.3038L63.105 40.0824L58.878 42.5287L58.874 42.5247L48.5125 48.513L38.1551 54.4973C39.2062 56.3151 40.7166 57.8247 42.5349 58.8749C44.3533 59.925 46.4157 60.4787 48.5155 60.4805C50.6162 60.4766 52.6791 59.9215 54.498 58.8707C56.317 57.8198 57.8283 56.31 58.881 54.4922L69.2414 60.4834C67.1336 64.1152 64.1106 67.1311 60.4738 69.2304C56.8371 71.3297 52.7136 72.4391 48.5145 72.448C44.3133 72.4466 40.1865 71.3402 36.5481 69.2398C32.9097 67.1394 29.8878 64.119 27.7856 60.4816L13.5245 68.7222C14.0906 69.7002 14.8668 70.5528 15.7197 71.0456L45.4103 88.1751C47.1202 89.1649 49.9171 89.1642 51.6305 88.1735L81.3126 71.0293C82.1653 70.536 82.941 69.683 83.5066 68.7047C84.0722 67.7305 84.4196 66.6311 84.4193 65.6409L84.4108 31.3672C84.4105 30.377 84.0626 29.2777 83.4966 28.3038ZM72.4479 49.8368L69.7884 49.8374L69.7891 52.4969L67.1337 52.4975L67.133 49.8381L64.4736 49.8388L64.4729 47.1793L67.1324 47.1787L67.1317 44.5192L69.7871 44.5185L69.7878 47.178L72.4472 47.1773L72.4479 49.8368ZM82.4228 49.8343L79.7634 49.8349L79.764 52.4944L77.1046 52.4951L77.1039 49.8356L74.4485 49.8363L74.4478 47.1768L77.1032 47.1762L77.1026 44.5167L79.762 44.5161L79.7627 47.1755L82.4221 47.1748L82.4228 49.8343Z" fill="#474747"/>
</svg>
