<svg width="854" height="854" viewBox="0 0 854 854" fill="none" xmlns="http://www.w3.org/2000/svg">
<path d="M0 427C0 191.174 191.174 0 427 0V0C662.826 0 854 191.174 854 427V427C854 662.826 662.826 854 427 854V854C191.174 854 0 662.826 0 427V427Z" fill="#ED474A"/>
<path d="M453.496 523.993H398.675L394.408 180.956H458.091L453.496 523.993ZM392.11 628.382C392.11 618.534 395.064 610.327 400.973 603.762C407.101 596.978 416.073 593.586 427.891 593.586C439.708 593.586 448.681 596.978 454.809 603.762C460.936 610.327 464 618.534 464 628.382C464 638.23 460.936 646.436 454.809 653.002C448.681 659.348 439.708 662.522 427.891 662.522C416.073 662.522 407.101 659.348 400.973 653.002C395.064 646.436 392.11 638.23 392.11 628.382Z" fill="white"/>
</svg>
