<svg width="80" height="80" viewBox="0 0 80 80" fill="none" xmlns="http://www.w3.org/2000/svg">
<path d="M0 6C0 2.68629 2.68629 0 6 0H74C77.3137 0 80 2.68629 80 6V74C80 77.3137 77.3137 80 74 80H6C2.68629 80 0 77.3137 0 74V6Z" fill="white"/>
<path fill-rule="evenodd" clip-rule="evenodd" d="M20 40.5H35C35.1326 40.5 35.2598 40.4473 35.3536 40.3536C35.4473 40.2598 35.5 40.1326 35.5 40V20C35.5 19.8674 35.4473 19.7402 35.3536 19.6464C35.2598 19.5527 35.1326 19.5 35 19.5H20C19.8674 19.5 19.7402 19.5527 19.6464 19.6464C19.5527 19.7402 19.5 19.8674 19.5 20V40C19.5 40.1326 19.5527 40.2598 19.6464 40.3536C19.7402 40.4473 19.8674 40.5 20 40.5ZM19.5 60C19.5 60.1326 19.5527 60.2598 19.6464 60.3536C19.7402 60.4473 19.8674 60.5 20 60.5H35C35.1326 60.5 35.2598 60.4473 35.3536 60.3536C35.4473 60.2598 35.5 60.1326 35.5 60V50C35.5 49.8674 35.4473 49.7402 35.3536 49.6464C35.2598 49.5527 35.1326 49.5 35 49.5H20C19.8674 49.5 19.7402 49.5527 19.6464 49.6464C19.5527 49.7402 19.5 49.8674 19.5 50V60ZM44.5 60C44.5 60.1326 44.5527 60.2598 44.6464 60.3536C44.7402 60.4473 44.8674 60.5 45 60.5H60C60.1326 60.5 60.2598 60.4473 60.3536 60.3536C60.4473 60.2598 60.5 60.1326 60.5 60V42.5C60.5 42.3674 60.4473 42.2402 60.3536 42.1464C60.2598 42.0527 60.1326 42 60 42H45C44.8674 42 44.7402 42.0527 44.6464 42.1464C44.5527 42.2402 44.5 42.3674 44.5 42.5V60ZM45 33H60C60.1326 33 60.2598 32.9473 60.3536 32.8536C60.4473 32.7598 60.5 32.6326 60.5 32.5V20C60.5 19.8674 60.4473 19.7402 60.3536 19.6464C60.2598 19.5527 60.1326 19.5 60 19.5H45C44.8674 19.5 44.7402 19.5527 44.6464 19.6464C44.5527 19.7402 44.5 19.8674 44.5 20V32.5C44.5 32.6326 44.5527 32.7598 44.6464 32.8536C44.7402 32.9473 44.8674 33 45 33ZM35 42.5H20C19.337 42.5 18.7011 42.2366 18.2322 41.7678C17.7634 41.2989 17.5 40.663 17.5 40V20C17.5 19.337 17.7634 18.7011 18.2322 18.2322C18.7011 17.7634 19.337 17.5 20 17.5H35C35.663 17.5 36.2989 17.7634 36.7678 18.2322C37.2366 18.7011 37.5 19.337 37.5 20V40C37.5 40.663 37.2366 41.2989 36.7678 41.7678C36.2989 42.2366 35.663 42.5 35 42.5ZM18.2322 61.7678C17.7634 61.2989 17.5 60.663 17.5 60V50C17.5 49.337 17.7634 48.7011 18.2322 48.2322C18.7011 47.7634 19.337 47.5 20 47.5H35C35.663 47.5 36.2989 47.7634 36.7678 48.2322C37.2366 48.7011 37.5 49.337 37.5 50V60C37.5 60.663 37.2366 61.2989 36.7678 61.7678C36.2989 62.2366 35.663 62.5 35 62.5H20C19.337 62.5 18.7011 62.2366 18.2322 61.7678ZM43.2322 61.7678C42.7634 61.2989 42.5 60.663 42.5 60V42.5C42.5 41.837 42.7634 41.2011 43.2322 40.7322C43.7011 40.2634 44.337 40 45 40H60C60.663 40 61.2989 40.2634 61.7678 40.7322C62.2366 41.2011 62.5 41.837 62.5 42.5V60C62.5 60.663 62.2366 61.2989 61.7678 61.7678C61.2989 62.2366 60.663 62.5 60 62.5H45C44.337 62.5 43.7011 62.2366 43.2322 61.7678ZM60 35H45C44.337 35 43.7011 34.7366 43.2322 34.2678C42.7634 33.7989 42.5 33.163 42.5 32.5V20C42.5 19.337 42.7634 18.7011 43.2322 18.2322C43.7011 17.7634 44.337 17.5 45 17.5H60C60.663 17.5 61.2989 17.7634 61.7678 18.2322C62.2366 18.7011 62.5 19.337 62.5 20V32.5C62.5 33.163 62.2366 33.7989 61.7678 34.2678C61.2989 34.7366 60.663 35 60 35Z" fill="black"/>
</svg>
