<svg width="80" height="80" viewBox="0 0 80 80" fill="none" xmlns="http://www.w3.org/2000/svg">
<rect width="80" height="80" rx="6" fill="white"/>
<path d="M20 41.5H35C35.3978 41.5 35.7794 41.342 36.0607 41.0607C36.342 40.7794 36.5 40.3978 36.5 40V20C36.5 19.6022 36.342 19.2206 36.0607 18.9393M20 41.5L36.0607 18.9393M20 41.5C19.6022 41.5 19.2206 41.342 18.9393 41.0607M20 41.5L18.2322 41.7678L18.9393 41.0607M36.0607 18.9393L36.7678 18.2322L18.9393 41.0607M36.0607 18.9393C35.7794 18.658 35.3978 18.5 35 18.5H20C19.6022 18.5 19.2206 18.658 18.9393 18.9393C18.658 19.2206 18.5 19.6022 18.5 20V40C18.5 40.3978 18.658 40.7794 18.9393 41.0607M18.5 60C18.5 60.3978 18.658 60.7794 18.9393 61.0607C19.2206 61.342 19.6022 61.5 20 61.5H35C35.3978 61.5 35.7794 61.342 36.0607 61.0607C36.342 60.7794 36.5 60.3978 36.5 60V50C36.5 49.6022 36.342 49.2206 36.0607 48.9393C35.7794 48.658 35.3978 48.5 35 48.5H20C19.6022 48.5 19.2206 48.658 18.9393 48.9393M18.5 60L18.9393 48.9393M18.5 60V50C18.5 49.6022 18.658 49.2206 18.9393 48.9393M18.5 60L18.2322 48.2322L18.9393 48.9393M45 34H60C60.3978 34 60.7794 33.842 61.0607 33.5607C61.342 33.2794 61.5 32.8978 61.5 32.5V20C61.5 19.6022 61.342 19.2206 61.0607 18.9393C60.7794 18.658 60.3978 18.5 60 18.5H45C44.6022 18.5 44.2206 18.658 43.9393 18.9393M45 34L43.9393 18.9393M45 34C44.6022 34 44.2206 33.842 43.9393 33.5607C43.658 33.2794 43.5 32.8978 43.5 32.5V20C43.5 19.6022 43.658 19.2206 43.9393 18.9393M45 34L43.2322 18.2322L43.9393 18.9393M43.9393 61.0607C43.658 60.7794 43.5 60.3978 43.5 60V42.5C43.5 42.1022 43.658 41.7206 43.9393 41.4393C44.2206 41.158 44.6022 41 45 41H60C60.3978 41 60.7794 41.158 61.0607 41.4393C61.342 41.7206 61.5 42.1022 61.5 42.5V60C61.5 60.3978 61.342 60.7794 61.0607 61.0607C60.7794 61.342 60.3978 61.5 60 61.5H45C44.6022 61.5 44.2206 61.342 43.9393 61.0607Z" stroke="black" stroke-width="2"/>
</svg>
