<svg width="70" height="95" viewBox="0 0 70 95" fill="none" xmlns="http://www.w3.org/2000/svg">
<g clip-path="url(#clip0)">
<path d="M22.5732 73.0527C22.5732 73.0527 18.9644 75.1489 25.1416 75.8582C32.6253 76.7109 36.4499 76.5888 44.6971 75.0296C44.6971 75.0296 46.8654 76.3875 49.8932 77.5639C31.4058 85.4781 8.05207 77.1053 22.5732 73.0527Z" fill="#474747"/>
<path d="M20.3143 62.7246C20.3143 62.7246 16.2666 65.7175 22.4485 66.356C30.4427 67.1798 36.7558 67.2472 47.6802 65.1461C47.6802 65.1461 49.1912 66.6761 51.5671 67.513C29.2144 74.0417 4.31765 68.0278 20.3143 62.7246Z" fill="#474747"/>
<path d="M39.3592 45.2057C43.9146 50.4442 38.1623 55.1583 38.1623 55.1583C38.1623 55.1583 49.729 49.1941 44.4169 41.7253C39.4557 34.7607 35.6508 31.2997 56.248 19.3682C56.248 19.3682 23.9173 27.4334 39.3592 45.2054" fill="#474747"/>
<path d="M63.8105 80.6914C63.8105 80.6914 66.4812 82.8892 60.8692 84.5897C50.198 87.8188 16.4541 88.7938 7.08016 84.7183C3.71059 83.2544 10.0297 81.2224 12.0174 80.7957C14.0903 80.3467 15.2751 80.4306 15.2751 80.4306C11.5276 77.7936 -8.94683 85.6081 4.87516 87.8458C42.5693 93.9517 73.5878 85.0966 63.8105 80.6914Z" fill="#474747"/>
<path d="M24.3086 52.0241C24.3086 52.0241 7.14464 56.0964 18.2306 57.5748C22.9113 58.2008 32.2424 58.0593 40.9341 57.3317C48.0375 56.7336 55.1701 55.4608 55.1701 55.4608C55.1701 55.4608 52.6654 56.5323 50.8534 57.7682C33.4234 62.347 -0.248287 60.217 9.44535 55.5332C17.6433 51.5751 24.3089 52.0241 24.3089 52.0241" fill="#474747"/>
<path d="M55.0994 69.2154C72.8182 60.0189 64.6257 51.1812 58.9076 52.372C57.5059 52.6632 56.8811 52.9155 56.8811 52.9155C56.8811 52.9155 57.4015 52.1016 58.3952 51.7493C69.7073 47.7768 78.4072 63.4654 54.7434 69.6789C54.7434 69.6792 55.0177 69.4345 55.0994 69.2154Z" fill="#474747"/>
<path d="M44.4169 0.100859C44.4169 0.100859 54.2297 9.90592 35.1099 24.9825C19.778 37.0769 31.6137 43.9726 35.1036 51.8514C26.154 43.7861 19.586 36.686 23.9925 30.0781C30.4595 20.3777 48.376 15.6748 44.4169 0.100586" fill="#474747"/>
<path d="M26.0499 94.1357C43.0575 95.2233 69.1743 93.5324 69.7928 85.4941C69.7928 85.4941 68.6039 88.5416 55.737 90.9615C41.2208 93.69 23.3172 93.3715 12.6982 91.6227C12.6985 91.6227 14.8721 93.4199 26.0502 94.1357" fill="#474747"/>
</g>
<defs>
<clipPath id="clip0">
<rect width="70" height="94.5" fill="white"/>
</clipPath>
</defs>
</svg>
