<svg width="898" height="524" viewBox="0 0 898 524" fill="none" xmlns="http://www.w3.org/2000/svg">
<mask id="mask0" mask-type="alpha" maskUnits="userSpaceOnUse" x="0" y="0" width="898" height="524">
<rect x="0.5" y="0.5" width="897" height="523" fill="#C4C4C4" stroke="white"/>
</mask>
<g mask="url(#mask0)">
<g opacity="0.7">
<g opacity="0.7" filter="url(#filter0_d)">
<path d="M599.652 244.849H529.471L451.193 199.862C441.295 194.013 423.75 194.913 412.054 201.661L336.924 245.299H266.744V292.536C266.294 296.585 268.543 300.184 273.492 302.883L414.753 384.76C424.65 390.609 442.195 389.709 453.892 382.961L589.754 304.683C595.603 301.084 599.202 296.585 599.202 292.536V244.849H599.652Z" fill="url(#paint0_linear)"/>
</g>
<path opacity="0.7" d="M411.832 337.372L270.571 255.945C260.674 250.096 261.574 240.199 273.271 233.451L409.133 155.173C420.83 148.425 438.375 147.525 448.272 153.373L589.533 235.251C599.43 241.099 598.531 250.996 586.834 257.744L450.972 336.023C439.725 342.771 422.179 343.221 411.832 337.372Z" fill="url(#paint1_linear)"/>
<path opacity="0.7" d="M592.904 234.053L451.643 152.175C446.244 149.026 439.046 148.126 431.848 148.126C437.247 148.576 442.195 149.926 446.244 152.175L587.505 234.053C597.402 239.901 596.503 249.798 584.806 256.546L448.943 334.825C443.545 337.974 436.347 339.773 429.599 340.223C438.147 340.673 447.594 338.873 454.342 334.825L590.204 256.546C601.451 250.248 602.801 239.901 592.904 234.053Z" fill="#EBC0FF"/>
<path opacity="0.7" d="M421.5 336.624L279.79 255.196C269.892 249.348 270.792 239.451 282.489 232.702L418.351 154.424C423.75 151.275 430.498 149.475 437.696 149.026C429.148 148.576 419.701 150.375 412.053 154.424L276.191 232.702C264.494 239.451 263.144 249.348 273.491 255.196L414.752 337.074C420.151 340.223 427.349 341.572 434.997 340.673C430.048 340.223 425.099 338.873 421.5 336.624Z" fill="#33BBFF"/>
<g opacity="0.7" filter="url(#filter1_b)">
<path d="M411.832 316.838L270.571 235.411C260.674 229.562 261.574 219.665 273.271 212.917L409.133 134.639C420.83 127.891 438.375 126.991 448.272 132.839L589.533 214.717C599.43 220.565 598.531 230.462 586.834 237.21L450.972 315.489C439.725 322.237 422.179 322.687 411.832 316.838Z" fill="url(#paint2_linear)"/>
</g>
<g opacity="0.7" filter="url(#filter2_b)">
<path d="M411.833 299.042L270.572 217.615C260.674 211.766 261.574 201.869 273.271 195.121L409.133 116.843C420.83 110.095 438.375 109.195 448.272 115.043L589.533 196.921C599.431 202.769 598.531 212.666 586.834 219.414L450.972 297.693C439.725 304.441 422.18 304.891 411.833 299.042Z" fill="url(#paint3_linear)"/>
</g>
</g>
<g opacity="0.7" filter="url(#filter3_b)">
<path fill-rule="evenodd" clip-rule="evenodd" d="M106.715 272.011L392.886 436.935C413.848 448.78 449.391 447.869 472.176 434.202L747.41 275.656C771.106 261.988 772.929 241.942 752.878 230.097L466.707 64.2624C446.657 52.417 411.114 54.2395 387.418 67.9072L112.183 226.452C88.4878 240.12 86.665 260.166 106.715 272.011ZM174.597 267.94L402.541 399.334C419.237 408.771 447.549 408.046 465.697 397.156L684.93 270.844C703.804 259.955 705.256 243.984 689.285 234.547L461.342 102.427C445.371 92.9895 417.06 94.4414 398.185 105.33L178.953 231.643C160.079 242.532 158.627 258.503 174.597 267.94Z" fill="url(#paint4_linear)"/>
</g>
<g opacity="0.7" filter="url(#filter4_b)">
<path fill-rule="evenodd" clip-rule="evenodd" d="M-78.61 229.053L344.693 -35.7543C375.699 -54.7736 428.276 -53.3106 461.978 -31.3652L869.104 223.201C904.155 245.146 906.851 277.332 877.192 296.352L453.889 562.622C424.231 581.641 371.655 578.715 336.605 556.769L-70.5213 302.204C-105.572 280.258 -108.268 248.072 -78.61 229.053ZM21.8007 235.591L358.974 24.6193C383.672 9.46667 425.55 10.6323 452.395 28.116L776.683 230.928C804.602 248.412 806.749 274.055 783.126 289.208L445.952 501.344C422.329 516.497 380.451 514.166 352.532 496.682L28.2436 293.87C0.324783 276.386 -1.82289 250.743 21.8007 235.591Z" fill="url(#paint5_radial)"/>
</g>
<g opacity="0.7" filter="url(#filter5_b)">
<path fill-rule="evenodd" clip-rule="evenodd" d="M1146.05 254.586L648.905 -34.5381C612.489 -55.3039 550.741 -53.7065 511.159 -29.746L33.0098 248.196C-8.1554 272.157 -11.3217 307.299 23.5105 328.065L520.659 618.786C555.491 639.552 617.239 636.357 658.404 612.396L1136.55 334.454C1177.72 310.494 1180.89 275.352 1146.05 254.586ZM1028.13 261.723L632.132 31.379C603.126 14.835 553.942 16.1075 522.414 35.1969L141.553 256.633C108.764 275.722 106.242 303.72 133.987 320.264L529.981 551.881C557.725 568.425 606.909 565.88 639.698 546.79L1020.56 325.354C1053.35 306.265 1055.87 278.268 1028.13 261.723Z" fill="url(#paint6_radial)"/>
</g>
<g filter="url(#filter6_d)">
<path d="M433.801 168.046C449.618 158.914 475.262 158.914 491.078 168.046L496.399 171.118C512.216 180.25 512.216 195.055 496.399 204.187L491.078 207.259C475.262 216.391 449.618 216.391 433.801 207.259L428.48 204.187C412.664 195.055 412.664 180.25 428.48 171.118L433.801 168.046Z" fill="#109B67"/>
<g clip-path="url(#clip0)">
<path d="M443.993 192.763C443.294 192.765 442.623 192.603 442.129 192.318C441.635 192.033 441.355 191.645 441.357 191.241L441.359 179.085C441.359 177.824 443.13 176.801 445.313 176.802L447.95 176.802C450.135 176.802 451.904 177.824 451.904 179.085L451.904 186.674L487.422 186.674C489.607 186.674 491.378 187.697 491.377 188.957L491.376 190.479C491.376 191.741 489.605 192.763 487.422 192.763L443.993 192.763Z" fill="white"/>
</g>
</g>
<g filter="url(#filter7_d)">
<path d="M362.641 197.757L369.514 193.789L368.569 194.905L371.855 185.419L374.411 186.894L371.64 194.273L370.953 193.876L383.733 192.276L386.267 193.739L369.858 195.649L371.748 195.079L364.874 199.047L362.641 197.757ZM374.82 204.963C373.747 204.343 373.038 203.669 372.694 202.942C372.365 202.222 372.401 201.499 372.801 200.771C373.217 200.036 374.004 199.333 375.164 198.663C376.295 198.01 377.498 197.564 378.773 197.324C380.047 197.084 381.307 197.059 382.553 197.25C383.813 197.448 384.98 197.857 386.054 198.477C387.113 199.089 387.808 199.755 388.137 200.474C388.481 201.201 388.445 201.933 388.03 202.669C387.629 203.413 386.863 204.111 385.732 204.764C384.572 205.434 383.348 205.885 382.059 206.116C380.799 206.348 379.539 206.364 378.279 206.166C377.033 205.976 375.88 205.575 374.82 204.963ZM376.539 203.971C377.512 204.533 378.594 204.777 379.782 204.702C380.985 204.636 382.231 204.231 383.519 203.487C384.765 202.768 385.445 202.061 385.56 201.367C385.703 200.672 385.288 200.044 384.314 199.482C383.34 198.92 382.238 198.672 381.006 198.738C379.804 198.804 378.579 199.197 377.333 199.916C376.045 200.66 375.336 201.375 375.207 202.061C375.093 202.756 375.536 203.392 376.539 203.971ZM386.485 211.697C385.182 210.945 384.559 210.172 384.616 209.378C384.688 208.576 385.446 207.758 386.893 206.923L393.53 203.091L395.699 204.344L389.084 208.163C388.196 208.676 387.716 209.159 387.644 209.614C387.602 210.069 387.959 210.515 388.718 210.953C389.592 211.457 390.58 211.697 391.682 211.672C392.799 211.656 393.83 211.375 394.775 210.829L400.854 207.32L403.023 208.572L392.198 214.822L390.093 213.607L392.391 212.28L392.735 212.379C391.604 212.685 390.494 212.772 389.406 212.64C388.317 212.507 387.344 212.193 386.485 211.697ZM395.333 216.632L403.108 212.143C403.61 211.854 404.104 211.552 404.59 211.238C405.092 210.932 405.557 210.614 405.987 210.283L408.048 211.474L405.578 213.197L405.428 212.986C406.559 212.548 407.698 212.379 408.843 212.478C410.003 212.585 410.998 212.879 411.829 213.358C412.029 213.474 412.201 213.59 412.344 213.706C412.487 213.821 412.609 213.933 412.709 214.04L410.69 215.157C410.447 214.851 410.096 214.565 409.638 214.301C408.936 213.896 408.22 213.656 407.49 213.582C406.774 213.499 406.065 213.536 405.364 213.693C404.691 213.85 404.082 214.086 403.538 214.4L397.502 217.885L395.333 216.632ZM413.688 227.403C412.6 226.775 411.884 226.097 411.54 225.37C411.211 224.65 411.247 223.927 411.648 223.199C412.049 222.472 412.815 221.782 413.946 221.128C415.077 220.475 416.287 220.033 417.576 219.802C418.879 219.562 420.168 219.537 421.442 219.727C422.731 219.926 423.927 220.343 425.029 220.98C425.774 221.41 426.375 221.897 426.833 222.443C427.292 222.989 427.521 223.518 427.521 224.03L425.287 224.551C425.187 224.03 424.979 223.563 424.664 223.15C424.363 222.745 423.948 222.389 423.418 222.083C422.387 221.488 421.235 221.211 419.96 221.252C418.7 221.302 417.447 221.687 416.201 222.406C414.956 223.125 414.297 223.844 414.225 224.563C414.154 225.283 414.641 225.944 415.686 226.548C416.201 226.845 416.817 227.085 417.533 227.267C418.249 227.449 419.058 227.569 419.96 227.626L419.058 228.916C418.17 228.9 417.247 228.755 416.287 228.482C415.328 228.209 414.462 227.85 413.688 227.403ZM424.385 233.579C423.311 232.959 422.603 232.285 422.259 231.558C421.93 230.839 421.965 230.115 422.366 229.388C422.781 228.652 423.569 227.949 424.729 227.28C425.86 226.626 427.063 226.18 428.337 225.94C429.612 225.701 430.872 225.676 432.118 225.866C433.378 226.064 434.545 226.473 435.619 227.094C436.678 227.705 437.373 228.371 437.702 229.09C438.046 229.818 438.01 230.549 437.595 231.285C437.194 232.029 436.428 232.728 435.296 233.381C434.137 234.05 432.912 234.501 431.624 234.732C430.364 234.964 429.103 234.98 427.843 234.782C426.598 234.592 425.445 234.191 424.385 233.579ZM426.104 232.587C427.077 233.149 428.158 233.393 429.347 233.319C430.55 233.253 431.795 232.847 433.084 232.103C434.33 231.384 435.01 230.677 435.125 229.983C435.268 229.288 434.853 228.66 433.879 228.098C432.905 227.536 431.803 227.288 430.571 227.354C429.368 227.42 428.144 227.813 426.898 228.532C425.61 229.276 424.901 229.991 424.772 230.677C424.657 231.372 425.101 232.008 426.104 232.587ZM442.257 243.724L440.109 242.484L442.944 240.847L442.901 241.169C441.799 241.525 440.667 241.64 439.507 241.516C438.376 241.392 437.331 241.053 436.372 240.499C435.427 239.954 434.818 239.338 434.546 238.652C434.302 237.966 434.403 237.263 434.847 236.544C435.305 235.816 436.107 235.122 437.252 234.46C438.383 233.807 439.558 233.352 440.775 233.096C442.006 232.848 443.209 232.799 444.383 232.947C445.572 233.104 446.646 233.46 447.605 234.014C448.564 234.568 449.144 235.175 449.345 235.837C449.56 236.506 449.366 237.155 448.765 237.784L448.228 237.771L455.896 233.344L458.065 234.597L442.257 243.724ZM438.605 239.805C439.579 240.367 440.667 240.607 441.87 240.524C443.087 240.45 444.326 240.049 445.586 239.321C446.803 238.619 447.476 237.916 447.605 237.213C447.762 236.511 447.354 235.878 446.381 235.316C445.393 234.745 444.283 234.493 443.051 234.559C441.849 234.626 440.639 235.01 439.422 235.713C438.161 236.44 437.46 237.16 437.317 237.87C437.188 238.59 437.617 239.235 438.605 239.805ZM455.732 250.065C454.816 250.032 453.856 249.875 452.854 249.594C451.866 249.305 450.985 248.937 450.212 248.49C449.066 247.829 448.3 247.13 447.914 246.394C447.527 245.659 447.534 244.919 447.935 244.175C448.336 243.431 449.117 242.724 450.276 242.054C451.393 241.409 452.589 240.967 453.863 240.727C455.152 240.496 456.419 240.467 457.665 240.641C458.911 240.814 460.042 241.194 461.059 241.781C462.032 242.344 462.655 242.951 462.927 243.604C463.199 244.257 463.121 244.923 462.691 245.601C462.29 246.279 461.531 246.94 460.414 247.585L460.049 247.796L452.081 243.195L453.391 242.463L460.071 246.32L458.675 246.407C459.849 245.745 460.507 245.101 460.651 244.472C460.794 243.844 460.407 243.265 459.491 242.736C458.531 242.182 457.436 241.947 456.205 242.029C454.987 242.104 453.77 242.492 452.553 243.195C451.193 243.98 450.47 244.737 450.384 245.464C450.312 246.184 450.842 246.87 451.973 247.523C452.589 247.878 453.283 248.164 454.057 248.379C454.83 248.594 455.682 248.73 456.613 248.788L455.732 250.065ZM339.384 221.687L351.798 214.519C352.299 214.23 352.793 213.928 353.28 213.614C353.781 213.308 354.247 212.99 354.676 212.659L356.738 213.85L354.741 215.226L354.354 215.276C355.457 214.92 356.574 214.804 357.705 214.928C358.865 215.052 359.917 215.387 360.862 215.933C361.807 216.479 362.402 217.094 362.645 217.781C362.903 218.475 362.803 219.186 362.344 219.914C361.915 220.641 361.134 221.331 360.003 221.985C358.872 222.638 357.676 223.088 356.416 223.336C355.185 223.584 353.982 223.634 352.808 223.485C351.648 223.328 350.588 222.972 349.629 222.419C348.684 221.873 348.097 221.269 347.868 220.608C347.667 219.947 347.875 219.298 348.491 218.661L348.985 218.649L341.553 222.939L339.384 221.687ZM350.853 221.141C351.827 221.703 352.915 221.951 354.118 221.885C355.335 221.811 356.559 221.418 357.791 220.707C359.022 219.996 359.71 219.285 359.853 218.574C360.01 217.855 359.602 217.214 358.629 216.652C357.626 216.073 356.524 215.825 355.321 215.908C354.118 215.991 352.894 216.392 351.648 217.111C350.402 217.83 349.708 218.537 349.564 219.232C349.421 219.926 349.851 220.563 350.853 221.141ZM361.15 229.07C360.19 228.516 359.567 227.9 359.281 227.222C359.023 226.544 359.109 225.85 359.539 225.139C359.997 224.428 360.792 223.746 361.923 223.093C363.054 222.44 364.243 221.985 365.488 221.729C366.748 221.464 367.973 221.402 369.161 221.543C370.364 221.692 371.438 222.039 372.383 222.584C373.342 223.138 373.922 223.746 374.123 224.407C374.352 225.069 374.159 225.718 373.543 226.354L373.113 226.305L375.712 224.804L377.86 226.044L367.035 232.294L364.887 231.054L367.529 229.529L367.679 229.74C366.577 230.095 365.445 230.211 364.285 230.087C363.154 229.963 362.109 229.624 361.15 229.07ZM363.383 228.376C364.357 228.938 365.445 229.177 366.648 229.095C367.865 229.02 369.097 228.624 370.342 227.904C371.588 227.185 372.276 226.474 372.404 225.771C372.548 225.077 372.132 224.449 371.159 223.886C370.171 223.316 369.047 223.072 367.787 223.155C366.555 223.238 365.324 223.634 364.092 224.345C362.861 225.056 362.181 225.763 362.052 226.466C361.951 227.169 362.395 227.805 363.383 228.376ZM373.852 236.404C371.961 235.312 370.923 234.184 370.737 233.018L372.971 232.497C373.1 233.084 373.372 233.622 373.787 234.109C374.231 234.597 374.825 235.056 375.57 235.486C376.314 235.916 377.002 236.172 377.632 236.255C378.276 236.329 378.828 236.234 379.286 235.969C379.672 235.746 379.837 235.494 379.78 235.213C379.751 234.932 379.501 234.564 379.028 234.109L377.632 232.807C376.887 232.146 376.515 231.526 376.515 230.947C376.544 230.368 376.937 229.86 377.696 229.422C378.341 229.05 379.085 228.827 379.93 228.752C380.775 228.678 381.656 228.748 382.572 228.963C383.503 229.17 384.398 229.521 385.257 230.017C386.03 230.464 386.639 230.955 387.083 231.493C387.541 232.022 387.791 232.563 387.834 233.117L385.643 233.613C385.529 233.068 385.293 232.576 384.935 232.138C384.605 231.699 384.154 231.315 383.581 230.984C382.88 230.579 382.2 230.344 381.541 230.278C380.897 230.203 380.338 230.302 379.866 230.575C379.479 230.798 379.286 231.042 379.286 231.307C379.314 231.571 379.543 231.902 379.973 232.299L381.348 233.613C382.164 234.349 382.565 235.002 382.55 235.573C382.536 236.143 382.135 236.656 381.348 237.11C380.388 237.664 379.228 237.879 377.868 237.755C376.536 237.631 375.198 237.181 373.852 236.404ZM384.549 242.58C382.659 241.488 381.621 240.36 381.435 239.194L383.668 238.673C383.797 239.26 384.069 239.798 384.485 240.286C384.928 240.773 385.523 241.232 386.267 241.662C387.012 242.092 387.699 242.348 388.329 242.431C388.974 242.505 389.525 242.41 389.983 242.146C390.37 241.922 390.534 241.67 390.477 241.389C390.449 241.108 390.198 240.74 389.725 240.286L388.329 238.983C387.585 238.322 387.212 237.702 387.212 237.123C387.241 236.545 387.635 236.036 388.394 235.598C389.038 235.226 389.783 235.003 390.628 234.928C391.472 234.854 392.353 234.924 393.269 235.139C394.2 235.346 395.095 235.697 395.954 236.193C396.727 236.64 397.336 237.132 397.78 237.669C398.238 238.198 398.489 238.74 398.532 239.293L396.341 239.79C396.226 239.244 395.99 238.752 395.632 238.314C395.303 237.876 394.852 237.491 394.279 237.161C393.577 236.755 392.897 236.52 392.238 236.454C391.594 236.379 391.036 236.478 390.563 236.751C390.176 236.975 389.983 237.218 389.983 237.483C390.012 237.748 390.241 238.078 390.67 238.475L392.045 239.79C392.861 240.525 393.262 241.178 393.248 241.749C393.234 242.319 392.833 242.832 392.045 243.287C391.086 243.84 389.926 244.055 388.566 243.931C387.234 243.807 385.895 243.357 384.549 242.58ZM401.905 250.988C400.988 250.955 400.029 250.798 399.027 250.517C398.039 250.227 397.158 249.86 396.385 249.413C395.239 248.752 394.473 248.053 394.087 247.317C393.7 246.582 393.707 245.842 394.108 245.098C394.509 244.354 395.289 243.647 396.449 242.977C397.566 242.332 398.762 241.89 400.036 241.65C401.325 241.419 402.592 241.39 403.838 241.563C405.084 241.737 406.215 242.117 407.232 242.704C408.205 243.266 408.828 243.874 409.1 244.527C409.372 245.18 409.294 245.846 408.864 246.524C408.463 247.202 407.704 247.863 406.587 248.508L406.222 248.719L398.253 244.118L399.564 243.386L406.244 247.243L404.847 247.33C406.022 246.668 406.68 246.024 406.824 245.395C406.967 244.767 406.58 244.188 405.664 243.659C404.704 243.105 403.609 242.87 402.377 242.952C401.16 243.027 399.943 243.415 398.726 244.118C397.366 244.903 396.643 245.66 396.557 246.387C396.485 247.107 397.015 247.793 398.146 248.446C398.762 248.801 399.456 249.087 400.23 249.301C401.003 249.516 401.855 249.653 402.786 249.711L401.905 250.988ZM413.243 258.973L411.096 257.733L413.931 256.096L413.888 256.418C412.785 256.774 411.654 256.889 410.494 256.765C409.363 256.641 408.318 256.303 407.358 255.749C406.413 255.203 405.805 254.587 405.533 253.901C405.289 253.215 405.389 252.512 405.833 251.793C406.292 251.065 407.093 250.371 408.239 249.709C409.37 249.056 410.544 248.602 411.761 248.345C412.993 248.097 414.196 248.048 415.37 248.197C416.558 248.354 417.632 248.709 418.592 249.263C419.551 249.817 420.131 250.425 420.331 251.086C420.546 251.756 420.353 252.405 419.752 253.033L419.215 253.02L426.883 248.593L429.052 249.846L413.243 258.973ZM409.592 255.054C410.566 255.616 411.654 255.856 412.857 255.773C414.074 255.699 415.313 255.298 416.573 254.571C417.79 253.868 418.463 253.165 418.592 252.462C418.749 251.76 418.341 251.127 417.367 250.565C416.379 249.995 415.27 249.743 414.038 249.809C412.835 249.875 411.625 250.259 410.408 250.962C409.148 251.689 408.447 252.409 408.303 253.12C408.174 253.839 408.604 254.484 409.592 255.054Z" fill="white"/>
</g>
</g>
<defs>
<filter id="filter0_d" x="241.636" y="175.942" width="383.067" height="242.758" filterUnits="userSpaceOnUse" color-interpolation-filters="sRGB">
<feFlood flood-opacity="0" result="BackgroundImageFix"/>
<feColorMatrix in="SourceAlpha" type="matrix" values="0 0 0 0 0 0 0 0 0 0 0 0 0 0 0 0 0 0 127 0"/>
<feOffset dy="5.01028"/>
<feGaussianBlur stdDeviation="12.5257"/>
<feColorMatrix type="matrix" values="0 0 0 0 0.921269 0 0 0 0 0.754167 0 0 0 0 1 0 0 0 1 0"/>
<feBlend mode="normal" in2="BackgroundImageFix" result="effect1_dropShadow"/>
<feBlend mode="normal" in="SourceGraphic" in2="effect1_dropShadow" result="shape"/>
</filter>
<filter id="filter1_b" x="88.4075" y="-46.3984" width="683.29" height="542.669" filterUnits="userSpaceOnUse" color-interpolation-filters="sRGB">
<feFlood flood-opacity="0" result="BackgroundImageFix"/>
<feGaussianBlur in="BackgroundImage" stdDeviation="87.6798"/>
<feComposite in2="SourceAlpha" operator="in" result="effect1_backgroundBlur"/>
<feBlend mode="normal" in="SourceGraphic" in2="effect1_backgroundBlur" result="shape"/>
</filter>
<filter id="filter2_b" x="88.4077" y="-64.1945" width="683.29" height="542.669" filterUnits="userSpaceOnUse" color-interpolation-filters="sRGB">
<feFlood flood-opacity="0" result="BackgroundImageFix"/>
<feGaussianBlur in="BackgroundImage" stdDeviation="87.6798"/>
<feComposite in2="SourceAlpha" operator="in" result="effect1_backgroundBlur"/>
<feBlend mode="normal" in="SourceGraphic" in2="effect1_backgroundBlur" result="shape"/>
</filter>
<filter id="filter3_b" x="-82.429" y="-118.952" width="1024.45" height="739.496" filterUnits="userSpaceOnUse" color-interpolation-filters="sRGB">
<feFlood flood-opacity="0" result="BackgroundImageFix"/>
<feGaussianBlur in="BackgroundImage" stdDeviation="87.6798"/>
<feComposite in2="SourceAlpha" operator="in" result="effect1_backgroundBlur"/>
<feBlend mode="normal" in="SourceGraphic" in2="effect1_backgroundBlur" result="shape"/>
</filter>
<filter id="filter4_b" x="-274.36" y="-224.36" width="1347.3" height="974.952" filterUnits="userSpaceOnUse" color-interpolation-filters="sRGB">
<feFlood flood-opacity="0" result="BackgroundImageFix"/>
<feGaussianBlur in="BackgroundImage" stdDeviation="87.6798"/>
<feComposite in2="SourceAlpha" operator="in" result="effect1_backgroundBlur"/>
<feBlend mode="normal" in="SourceGraphic" in2="effect1_backgroundBlur" result="shape"/>
</filter>
<filter id="filter5_b" x="-175.796" y="-224.36" width="1521.16" height="1032.27" filterUnits="userSpaceOnUse" color-interpolation-filters="sRGB">
<feFlood flood-opacity="0" result="BackgroundImageFix"/>
<feGaussianBlur in="BackgroundImage" stdDeviation="87.6798"/>
<feComposite in2="SourceAlpha" operator="in" result="effect1_backgroundBlur"/>
<feBlend mode="normal" in="SourceGraphic" in2="effect1_backgroundBlur" result="shape"/>
</filter>
<filter id="filter6_d" x="411.608" y="161.197" width="101.664" height="70.4464" filterUnits="userSpaceOnUse" color-interpolation-filters="sRGB">
<feFlood flood-opacity="0" result="BackgroundImageFix"/>
<feColorMatrix in="SourceAlpha" type="matrix" values="0 0 0 0 0 0 0 0 0 0 0 0 0 0 0 0 0 0 127 0"/>
<feOffset dy="12.5257"/>
<feGaussianBlur stdDeviation="2.50514"/>
<feColorMatrix type="matrix" values="0 0 0 0 0 0 0 0 0 0 0 0 0 0 0 0 0 0 0.25 0"/>
<feBlend mode="normal" in2="BackgroundImageFix" result="effect1_dropShadow"/>
<feBlend mode="normal" in="SourceGraphic" in2="effect1_dropShadow" result="shape"/>
</filter>
<filter id="filter7_d" x="334.373" y="185.419" width="133.723" height="93.5954" filterUnits="userSpaceOnUse" color-interpolation-filters="sRGB">
<feFlood flood-opacity="0" result="BackgroundImageFix"/>
<feColorMatrix in="SourceAlpha" type="matrix" values="0 0 0 0 0 0 0 0 0 0 0 0 0 0 0 0 0 0 127 0"/>
<feOffset dy="15.0308"/>
<feGaussianBlur stdDeviation="2.50514"/>
<feColorMatrix type="matrix" values="0 0 0 0 0 0 0 0 0 0 0 0 0 0 0 0 0 0 0.25 0"/>
<feBlend mode="normal" in2="BackgroundImageFix" result="effect1_dropShadow"/>
<feBlend mode="normal" in="SourceGraphic" in2="effect1_dropShadow" result="shape"/>
</filter>
<linearGradient id="paint0_linear" x1="267.001" y1="301.19" x2="592.807" y2="292.976" gradientUnits="userSpaceOnUse">
<stop stop-color="#A31FA9"/>
<stop offset="0.0001" stop-color="#2B2338"/>
<stop offset="1" stop-color="#0D1117"/>
</linearGradient>
<linearGradient id="paint1_linear" x1="336.32" y1="281.597" x2="586.071" y2="307.184" gradientUnits="userSpaceOnUse">
<stop stop-color="#33BBFF"/>
<stop offset="0.75" stop-color="#A1856E"/>
</linearGradient>
<linearGradient id="paint2_linear" x1="261.1" y1="224.852" x2="573.286" y2="302.101" gradientUnits="userSpaceOnUse">
<stop stop-color="#8D139B"/>
<stop offset="0.1651" stop-color="#851BA1"/>
<stop offset="0.4284" stop-color="#6E33B2"/>
<stop offset="0.7551" stop-color="#4958CD"/>
<stop offset="1" stop-color="#2979E4"/>
</linearGradient>
<linearGradient id="paint3_linear" x1="261.1" y1="207.056" x2="573.286" y2="284.305" gradientUnits="userSpaceOnUse">
<stop stop-color="#ED5C0C"/>
<stop offset="1" stop-color="#6E33B2"/>
</linearGradient>
<linearGradient id="paint4_linear" x1="282.248" y1="288.442" x2="311.268" y2="362.017" gradientUnits="userSpaceOnUse">
<stop stop-color="#8D139B" stop-opacity="0"/>
<stop offset="0.625" stop-color="#8D139B"/>
<stop offset="1" stop-color="#2979E4"/>
</linearGradient>
<radialGradient id="paint5_radial" cx="0" cy="0" r="1" gradientUnits="userSpaceOnUse" gradientTransform="translate(814.078 263.117) rotate(-177.582) scale(308.284 193.796)">
<stop stop-color="#8D139B" stop-opacity="0"/>
<stop offset="0.0001" stop-color="#2979E4"/>
<stop offset="1" stop-color="#8D139B" stop-opacity="0"/>
</radialGradient>
<radialGradient id="paint6_radial" cx="0" cy="0" r="1" gradientUnits="userSpaceOnUse" gradientTransform="translate(90.3191 323.412) rotate(0.29712) scale(724.179 425.992)">
<stop stop-color="#8D139B" stop-opacity="0"/>
<stop offset="0.0001" stop-color="#2979E4"/>
<stop offset="0.647959" stop-color="#8D139B" stop-opacity="0"/>
</radialGradient>
<clipPath id="clip0">
<rect width="42.1643" height="42.1643" fill="white" transform="matrix(0.866025 0.5 -0.866025 0.5 461.914 166.272)"/>
</clipPath>
</defs>
</svg>
