<svg width="2529" height="520" viewBox="0 0 2529 520" fill="none" xmlns="http://www.w3.org/2000/svg">
<path d="M691 419.024V382.26C705.69 384.36 717 384.827 724.928 383.66C732.856 382.726 738.336 379.342 741.367 373.506C744.398 367.671 745.914 358.684 745.914 346.546V107.403H791.035V346.196C791.035 366.737 787.887 383.077 781.591 395.215C775.295 407.353 764.802 415.289 750.111 419.024C735.654 422.992 715.95 422.992 691 419.024Z" fill="white"/>
<path d="M912.862 359.151C891.176 359.151 874.853 353.198 863.894 341.294C853.167 329.156 847.804 310.949 847.804 286.673V179.881H891.526V287.023C891.526 299.861 894.207 309.315 899.57 315.384C904.934 321.453 912.978 324.487 923.705 324.487C936.53 324.487 946.79 320.286 954.485 311.882C962.18 303.479 966.027 292.275 966.027 278.269V179.881H1010.1V356.7H967.426V320.286L971.973 319.936C966.843 332.774 959.148 342.578 948.888 349.347C938.628 355.883 926.619 359.151 912.862 359.151Z" fill="white"/>
<path d="M1128.92 359.151C1096.75 359.151 1071.33 351.798 1052.67 337.092L1064.92 306.28C1074.24 313.283 1084.39 318.535 1095.35 322.036C1106.31 325.538 1117.73 327.288 1129.62 327.288C1140.35 327.288 1148.51 325.538 1154.11 322.036C1159.7 318.535 1162.5 313.633 1162.5 307.331C1162.5 301.962 1160.52 297.76 1156.56 294.726C1152.59 291.458 1145.83 288.657 1136.27 286.323L1106.89 279.67C1090.8 276.169 1078.67 270.333 1070.51 262.163C1062.58 253.76 1058.62 243.139 1058.62 230.301C1058.62 219.563 1061.65 210.11 1067.71 201.94C1073.78 193.537 1082.29 187.001 1093.25 182.332C1104.21 177.664 1116.92 175.33 1131.37 175.33C1143.97 175.33 1156.09 177.314 1167.75 181.282C1179.41 185.017 1189.55 190.502 1198.18 197.738L1185.59 227.85C1176.73 221.081 1167.63 216.062 1158.31 212.794C1149.21 209.526 1140.12 207.892 1131.02 207.892C1121 207.892 1113.19 209.76 1107.59 213.494C1101.99 217.229 1099.19 222.364 1099.19 228.9C1099.19 234.036 1100.83 238.121 1104.09 241.155C1107.59 244.19 1113.53 246.64 1121.93 248.508L1151.66 255.861C1169.15 259.596 1181.86 265.665 1189.79 274.068C1197.95 282.238 1202.03 293.092 1202.03 306.63C1202.03 322.737 1195.5 335.575 1182.44 345.145C1169.38 354.482 1151.54 359.151 1128.92 359.151Z" fill="white"/>
<path d="M1222.7 212.794V179.881H1347.22V212.794H1222.7ZM1347.22 320.286V354.949C1342.55 356.583 1337.89 357.633 1333.22 358.1C1328.79 358.801 1324.01 359.151 1318.88 359.151C1299.06 359.151 1283.67 353.549 1272.71 342.344C1261.99 331.14 1256.62 315.034 1256.62 294.025V136.815L1300.35 122.109V291.925C1300.35 299.861 1301.63 306.164 1304.19 310.832C1306.76 315.267 1310.14 318.418 1314.34 320.286C1318.77 322.153 1323.66 323.087 1329.03 323.087C1332.06 323.087 1334.97 322.853 1337.77 322.386C1340.57 321.92 1343.72 321.219 1347.22 320.286Z" fill="white"/>
<path d="M1387.41 356.7V107.403H1494.09C1522.3 107.403 1543.75 113.589 1558.44 125.96C1573.13 138.332 1580.48 156.072 1580.48 179.181C1580.48 201.123 1572.9 218.63 1557.74 231.701C1542.59 244.54 1521.49 250.959 1494.44 250.959L1522.42 245.357C1531.05 245.357 1538.74 247.924 1545.5 253.06C1552.27 258.195 1557.63 266.131 1561.59 276.869L1592.37 356.7H1544.8L1513.32 273.718C1510.06 265.548 1505.4 260.062 1499.33 257.261C1493.5 254.46 1486.16 253.06 1477.3 253.06H1431.83V356.7H1387.41ZM1431.48 218.046H1487.79C1505.05 218.046 1517.64 214.895 1525.57 208.592C1533.49 202.29 1537.46 192.836 1537.46 180.231C1537.46 167.393 1533.49 157.939 1525.57 151.87C1517.64 145.801 1505.05 142.767 1487.79 142.767H1431.48V218.046Z" fill="white"/>
<path d="M1700.5 359.151C1678.82 359.151 1662.49 353.198 1651.54 341.294C1640.81 329.156 1635.45 310.949 1635.45 286.673V179.881H1679.17V287.023C1679.17 299.861 1681.85 309.315 1687.21 315.384C1692.58 321.453 1700.62 324.487 1711.35 324.487C1724.17 324.487 1734.43 320.286 1742.13 311.882C1749.82 303.479 1753.67 292.275 1753.67 278.269V179.881H1797.74V356.7H1755.07V320.286L1759.61 319.936C1754.48 332.774 1746.79 342.578 1736.53 349.347C1726.27 355.883 1714.26 359.151 1700.5 359.151Z" fill="white"/>
<path d="M1851.51 356.7V229.951C1851.51 221.547 1851.28 213.144 1850.81 204.741C1850.58 196.338 1849.88 188.051 1848.71 179.881H1889.98L1893.83 214.895L1889.98 215.945C1895.58 202.64 1903.86 192.603 1914.82 185.834C1926.01 178.831 1938.84 175.33 1953.29 175.33C1995.27 175.33 2016.25 199.606 2016.25 248.158V356.7H1972.53V249.908C1972.53 236.136 1969.85 226.099 1964.49 219.797C1959.12 213.261 1950.84 209.993 1939.65 209.993C1926.13 209.993 1915.28 214.311 1907.12 222.948C1899.19 231.351 1895.23 242.556 1895.23 256.561V356.7H1851.51Z" fill="white"/>
<path d="M2064.72 307.681H2114.03V356.7H2064.72V307.681Z" fill="white"/>
<path d="M2163.69 356.7V229.951C2163.69 221.781 2163.46 213.494 2162.99 205.091C2162.76 196.454 2162.06 188.051 2160.9 179.881H2202.17L2206.02 214.895L2202.17 215.245C2206.83 202.64 2214.29 192.836 2224.55 185.834C2234.81 178.831 2246.94 175.33 2260.93 175.33C2277.49 175.33 2290.43 179.531 2299.75 187.934C2309.32 196.104 2315.49 208.709 2318.29 225.749L2309.9 218.046C2314.56 205.208 2322.49 194.937 2333.68 187.234C2344.88 179.298 2357.93 175.33 2372.86 175.33C2392.68 175.33 2407.48 181.399 2417.28 193.537C2427.07 205.441 2431.97 223.648 2431.97 248.158V356.7H2388.25V249.558C2388.25 236.02 2385.92 226.099 2381.25 219.797C2376.82 213.261 2369.36 209.993 2358.87 209.993C2346.74 209.993 2337.18 214.311 2330.19 222.948C2323.42 231.351 2320.04 243.022 2320.04 257.962V356.7H2276.32V249.558C2276.32 236.02 2273.87 226.099 2268.97 219.797C2264.31 213.261 2256.85 209.993 2246.59 209.993C2234.23 209.993 2224.55 214.311 2217.56 222.948C2210.8 231.351 2207.42 243.022 2207.42 257.962V356.7H2163.69Z" fill="white"/>
<path d="M2485.28 356.7V99H2529V356.7H2485.28Z" fill="white"/>
<g clip-path="url(#clip0)">
<path d="M350 266H590V499C590 510.046 581.046 519 570 519H350V266Z" fill="#33BBFF"/>
<path d="M590 133.182H177.136V266.364H590V133.182Z" fill="#66CCFF"/>
<path d="M350 0H570C581.046 0 590 8.9543 590 20V133H350V0Z" fill="#99DDFF"/>
<path d="M177.136 20C177.136 8.95435 186.091 0 197.136 0H350.273V519.409H197.136C186.091 519.409 177.136 510.455 177.136 499.409V20Z" fill="#0088CC"/>
<g filter="url(#filter0_dd)">
<path d="M338.359 79.9092H24C12.9543 79.9092 4 88.8635 4 99.9092V414.268C4 425.314 12.9543 434.268 24 434.268H338.359C349.405 434.268 358.359 425.314 358.359 414.268V99.9092C358.359 88.8635 349.405 79.9092 338.359 79.9092Z" fill="#0078D4"/>
</g>
<path d="M135.729 189.693C134.293 190.098 132.892 190.62 131.542 191.254C128.765 192.643 61.5895 230.63 48.4532 238.206C47.0274 239.029 47.2121 239.481 48.7784 238.975C56.7873 236.813 60.2061 238.01 82.9548 250.941C96.8258 258.826 101.525 261.3 102.1 261.019C112.493 255.923 155.58 230.668 158.051 228.223C174.678 211.779 158.349 183.603 135.722 189.695" fill="white"/>
<path d="M230.654 280.683C199.793 299.252 198.791 300.077 196.472 308.793C191.33 328.114 211.494 344.436 229.332 335.398C231.521 334.29 301.668 292.241 312.179 285.766C313.089 285.206 312.968 285.092 311.972 285.479C311.444 285.684 310.921 285.903 310.405 286.136C307.854 287.22 307.068 287.337 302.506 287.32C295.875 287.291 296.002 287.346 274.817 275.304C265.39 269.948 257.397 265.471 257.059 265.363C256.72 265.255 244.837 272.149 230.654 280.683Z" fill="white"/>
<path d="M55.3828 244.831C50.8209 245.727 49.48 246.106 47.307 247.096C46.4798 247.435 45.6902 247.858 44.9504 248.357C44.5513 248.626 44.1948 248.952 43.8497 249.288C43.1926 249.927 42.5092 250.539 41.8013 251.122C40.7854 251.986 40.2392 252.503 38.3264 255.17C37.6978 256.046 37.0642 256.953 36.7014 257.969C36.2965 259.102 35.787 260.911 35.3566 263.471C34.4911 268.578 35.3183 273.829 37.7124 278.423C38.2929 279.441 38.6644 280.598 39.4439 281.473C41.3197 283.578 45.1201 287.145 45.3435 286.804C45.3938 286.723 45.802 286.967 46.2453 287.346C47.1229 288.097 55.0505 292.629 120.624 329.868C134.47 337.727 135.775 338.201 142.907 337.917C163.076 337.11 172.242 311.219 157.083 297.874C155.17 296.193 114.246 272.568 104.757 267.668C102.333 266.416 93.1055 261.267 84.2596 256.224C75.4137 251.18 67.158 246.704 65.9232 246.27C62.3086 244.994 57.724 244.37 55.3842 244.831" fill="white"/>
<path d="M211.917 189.463C198.01 192.924 191.234 208.847 197.975 222.21C200.394 227.002 202.771 228.835 217.193 237.04C224.387 241.135 235.004 247.182 240.784 250.478C246.565 253.775 252.547 257.11 254.08 257.885C255.614 258.661 264.196 263.461 273.154 268.555C292.799 279.72 292.614 279.643 299.116 279.679C314.164 279.767 324.519 266.447 320.764 251.835C318.857 244.42 315.686 241.085 304.478 234.718C263.545 211.461 244.371 200.562 236.817 196.248C224.816 189.399 218.784 187.753 211.917 189.463Z" fill="white"/>
</g>
<defs>
<filter id="filter0_dd" x="0.4" y="77.9092" width="361.559" height="361.559" filterUnits="userSpaceOnUse" color-interpolation-filters="sRGB">
<feFlood flood-opacity="0" result="BackgroundImageFix"/>
<feColorMatrix in="SourceAlpha" type="matrix" values="0 0 0 0 0 0 0 0 0 0 0 0 0 0 0 0 0 0 127 0"/>
<feOffset dy="1.6"/>
<feGaussianBlur stdDeviation="1.8"/>
<feColorMatrix type="matrix" values="0 0 0 0 0 0 0 0 0 0 0 0 0 0 0 0 0 0 0.13 0"/>
<feBlend mode="normal" in2="BackgroundImageFix" result="effect1_dropShadow"/>
<feColorMatrix in="SourceAlpha" type="matrix" values="0 0 0 0 0 0 0 0 0 0 0 0 0 0 0 0 0 0 127 0"/>
<feOffset dy="0.3"/>
<feGaussianBlur stdDeviation="0.45"/>
<feColorMatrix type="matrix" values="0 0 0 0 0 0 0 0 0 0 0 0 0 0 0 0 0 0 0.1 0"/>
<feBlend mode="normal" in2="effect1_dropShadow" result="effect2_dropShadow"/>
<feBlend mode="normal" in="SourceGraphic" in2="effect2_dropShadow" result="shape"/>
</filter>
<clipPath id="clip0">
<rect width="590" height="520" fill="white"/>
</clipPath>
</defs>
</svg>
