<svg width="48" height="39" viewBox="0 0 48 39" fill="none" xmlns="http://www.w3.org/2000/svg">
<path d="M28 20H48V37C48 38.1046 47.1046 39 46 39H28V20Z" fill="#33BBFF"/>
<rect x="17" y="10" width="31" height="10" fill="#66CCFF"/>
<path d="M17 2C17 0.89543 17.8954 0 19 0H46C47.1046 0 48 0.895431 48 2V10H17V2Z" fill="#99DDFF"/>
<path d="M17 2C17 0.89543 17.8954 0 19 0H30V39H19C17.8954 39 17 38.1046 17 37V2Z" fill="#0088CC"/>
<g filter="url(#filter0_dd)">
<rect x="4" y="6" width="26.6072" height="26.6072" rx="4" fill="#00AAFF"/>
</g>
<path d="M13.891 14.2432C13.7832 14.2736 13.6781 14.3128 13.5767 14.3604C13.3453 14.4761 7.16194 17.9744 7.17152 17.984C7.23635 17.9772 7.30029 17.9636 7.36233 17.9436C7.96368 17.7813 8.22038 17.8711 9.92847 18.842C10.97 19.4341 11.3228 19.6199 11.366 19.5987C12.1463 19.2161 15.3815 17.3198 15.5671 17.1363C16.8155 15.9015 15.5894 13.7859 13.8905 14.2433" fill="white"/>
<path d="M21.0185 21.0752C18.7013 22.4695 18.626 22.5314 18.452 23.1859C18.0659 24.6365 19.5799 25.8621 20.9192 25.1835C21.0973 25.0933 27.2659 21.3943 27.2383 21.3943C27.1596 21.4204 27.0822 21.4505 27.0066 21.4846C26.8151 21.566 26.7561 21.5748 26.4136 21.5735C25.9156 21.5713 25.9252 21.5755 24.3345 20.6713C23.6266 20.2691 23.0265 19.933 23.0011 19.9249C22.9757 19.9168 22.0835 20.4344 21.0185 21.0752Z" fill="white"/>
<path d="M7.85822 18.3832C7.51569 18.4505 7.41501 18.479 7.25184 18.5533C7.17297 18.5856 7.09865 18.628 7.03076 18.6795C6.96977 18.7415 6.90558 18.8003 6.83845 18.8555C6.75092 18.93 6.70981 18.9701 6.50679 19.2593C6.49157 19.2705 6.41325 19.4336 6.35455 19.7828C6.28956 20.1663 6.35167 20.5605 6.53143 20.9054C6.55344 20.944 6.5711 20.985 6.58408 21.0275C6.57994 21.0792 7.082 21.5689 7.10442 21.5347C7.1082 21.5286 7.13884 21.547 7.17213 21.5754C7.23802 21.6319 7.83327 21.9721 12.7569 24.7682C13.7965 25.3583 13.8945 25.3939 14.43 25.3726C15.9444 25.312 16.6326 23.368 15.4944 22.3659C15.3508 22.2397 12.278 20.4658 11.5655 20.0979C11.3835 20.0039 10.6906 19.6173 10.0264 19.2386C9.36225 18.8599 8.74236 18.5238 8.64965 18.4912C8.37825 18.3955 8.03401 18.3486 7.85832 18.3832" fill="white"/>
<path d="M19.6115 14.226C18.5673 14.4858 18.0585 15.6814 18.5647 16.6848C18.7463 17.0446 18.9248 17.1822 20.0076 17.7983C20.5479 18.1057 21.345 18.5598 21.779 18.8073C22.2131 19.0548 22.6623 19.3052 22.7774 19.3635C22.8925 19.4217 23.5369 19.7821 24.2096 20.1646C25.6845 21.0029 25.6707 20.9971 26.1589 20.9998C27.2888 21.0064 28.0663 20.0063 27.7843 18.9092C27.6412 18.3524 27.403 18.102 26.5615 17.6239C23.488 15.8777 22.0484 15.0593 21.4811 14.7354C20.5801 14.2211 20.1271 14.0975 19.6115 14.226Z" fill="white"/>
<defs>
<filter id="filter0_dd" x="0.4" y="4" width="33.8072" height="33.8072" filterUnits="userSpaceOnUse" color-interpolation-filters="sRGB">
<feFlood flood-opacity="0" result="BackgroundImageFix"/>
<feColorMatrix in="SourceAlpha" type="matrix" values="0 0 0 0 0 0 0 0 0 0 0 0 0 0 0 0 0 0 127 0"/>
<feOffset dy="1.6"/>
<feGaussianBlur stdDeviation="1.8"/>
<feColorMatrix type="matrix" values="0 0 0 0 0 0 0 0 0 0 0 0 0 0 0 0 0 0 0.13 0"/>
<feBlend mode="normal" in2="BackgroundImageFix" result="effect1_dropShadow"/>
<feColorMatrix in="SourceAlpha" type="matrix" values="0 0 0 0 0 0 0 0 0 0 0 0 0 0 0 0 0 0 127 0"/>
<feOffset dy="0.3"/>
<feGaussianBlur stdDeviation="0.45"/>
<feColorMatrix type="matrix" values="0 0 0 0 0 0 0 0 0 0 0 0 0 0 0 0 0 0 0.1 0"/>
<feBlend mode="normal" in2="effect1_dropShadow" result="effect2_dropShadow"/>
<feBlend mode="normal" in="SourceGraphic" in2="effect2_dropShadow" result="shape"/>
</filter>
</defs>
</svg>
