<svg width="196" height="41" viewBox="0 0 196 41" fill="none" xmlns="http://www.w3.org/2000/svg">
<g clip-path="url(#clip0)">
<path d="M27.5961 20.9731H46.5191V39.3443C46.5191 40.2152 45.8132 40.9212 44.9422 40.9212H27.5961V20.9731Z" fill="#33BBFF"/>
<path d="M46.5192 10.501H13.9664V21.0019H46.5192V10.501Z" fill="#66CCFF"/>
<path d="M27.5961 0H44.9422C45.8132 0 46.5191 0.706012 46.5191 1.57692V10.4865H27.5961V0Z" fill="#99DDFF"/>
<path d="M13.9664 1.57692C13.9664 0.706016 14.6725 0 15.5434 0H27.6176V40.9534H15.5434C14.6725 40.9534 13.9664 40.2474 13.9664 39.3765V1.57692Z" fill="#0088CC"/>
<g filter="url(#filter0_dd)">
<path d="M26.6784 6.30078H1.89235C1.02144 6.30078 0.31543 7.00679 0.31543 7.8777V32.6637C0.31543 33.5346 1.02144 34.2406 1.89235 34.2406H26.6784C27.5493 34.2406 28.2553 33.5346 28.2553 32.6637V7.8777C28.2553 7.00679 27.5493 6.30078 26.6784 6.30078Z" fill="#0078D4"/>
</g>
<path d="M10.7017 14.9568C10.5884 14.9888 10.478 15.0299 10.3715 15.0799C10.1526 15.1894 4.85605 18.1846 3.82031 18.7819C3.70789 18.8468 3.72245 18.8824 3.84595 18.8425C4.47742 18.6721 4.74698 18.7664 6.54063 19.786C7.6343 20.4077 8.00481 20.6028 8.05015 20.5806C8.8696 20.1788 12.2668 18.1876 12.4617 17.9948C13.7726 16.6982 12.4852 14.4767 10.7011 14.957" fill="white"/>
<path d="M18.186 22.1309C15.7528 23.595 15.6738 23.66 15.4909 24.3472C15.0855 25.8706 16.6753 27.1576 18.0818 26.4449C18.2544 26.3576 23.7852 23.0422 24.614 22.5316C24.6857 22.4875 24.6762 22.4785 24.5976 22.509C24.556 22.5252 24.5148 22.5424 24.4741 22.5608C24.273 22.6463 24.211 22.6555 23.8513 22.6542C23.3285 22.6519 23.3385 22.6562 21.6681 21.7068C20.9248 21.2845 20.2946 20.9315 20.268 20.923C20.2412 20.9144 19.3043 21.458 18.186 22.1309Z" fill="white"/>
<path d="M4.36668 19.3039C4.00699 19.3746 3.90127 19.4045 3.72993 19.4825C3.66471 19.5092 3.60245 19.5426 3.54412 19.5819C3.51266 19.6031 3.48455 19.6289 3.45734 19.6553C3.40553 19.7057 3.35165 19.754 3.29583 19.7999C3.21573 19.8681 3.17266 19.9088 3.02185 20.1191C2.97228 20.1882 2.92233 20.2597 2.89372 20.3398C2.8618 20.4291 2.82163 20.5718 2.78769 20.7736C2.71945 21.1763 2.78467 21.5903 2.97344 21.9525C3.01921 22.0328 3.0485 22.124 3.10996 22.193C3.25786 22.359 3.5575 22.6402 3.57512 22.6133C3.57908 22.6069 3.61127 22.6262 3.64622 22.6561C3.71542 22.7153 4.34048 23.0726 9.5107 26.0088C10.6024 26.6284 10.7053 26.6658 11.2676 26.6434C12.8579 26.5798 13.5806 24.5384 12.3853 23.4862C12.2345 23.3536 9.00782 21.4909 8.25964 21.1045C8.06852 21.0058 7.34097 20.5998 6.6435 20.2022C5.94604 19.8045 5.29511 19.4516 5.19775 19.4174C4.91275 19.3168 4.55127 19.2676 4.36679 19.3039" fill="white"/>
<path d="M16.7088 14.9385C15.6122 15.2114 15.078 16.4669 15.6095 17.5205C15.8002 17.8983 15.9876 18.0428 17.1248 18.6898C17.692 19.0126 18.5291 19.4894 18.9848 19.7493C19.4406 20.0093 19.9123 20.2722 20.0331 20.3333C20.1541 20.3945 20.8308 20.773 21.5371 21.1746C23.086 22.0549 23.0714 22.0488 23.5841 22.0517C24.7705 22.0586 25.587 21.0084 25.2909 19.8563C25.1406 19.2716 24.8905 19.0087 24.0068 18.5067C20.7794 16.673 19.2676 15.8136 18.672 15.4735C17.7258 14.9335 17.2502 14.8037 16.7088 14.9385Z" fill="white"/>
</g>
<path d="M69.0858 33.137C65.0396 33.137 61.9662 32.0485 59.8656 29.8716C57.7651 27.6947 56.7148 24.7292 56.7148 20.9751V20.7085C56.7148 17.0877 57.8535 14.1555 60.131 11.912C62.4084 9.6684 65.3049 8.54662 68.8205 8.54662C72.0045 8.54662 74.5693 9.31299 76.5151 10.8457C78.4608 12.3562 79.5663 14.6442 79.8317 17.7097H72.8336C72.5683 15.1996 71.2416 13.9445 68.8537 13.9445C67.3059 13.9445 66.0898 14.5332 65.2054 15.7105C64.321 16.8878 63.8787 18.5427 63.8787 20.6752V20.9418C63.8787 23.0965 64.321 24.7625 65.2054 25.9398C66.0898 27.0949 67.3391 27.6724 68.9532 27.6724C70.1693 27.6724 71.1642 27.3503 71.9381 26.7062C72.7341 26.0397 73.2095 25.0624 73.3643 23.774H80.1302C79.9091 26.795 78.8035 29.1163 76.8135 30.7379C74.8236 32.3373 72.2477 33.137 69.0858 33.137Z" fill="white"/>
<path d="M90.7076 28.7054C91.8131 28.7054 92.6533 28.3166 93.2282 27.5392C93.8252 26.7395 94.1237 25.6066 94.1237 24.1405V23.8739C94.1237 20.8307 92.985 19.3091 90.7076 19.3091C89.602 19.3091 88.7508 19.6978 88.1538 20.4753C87.5568 21.2305 87.2583 22.3412 87.2583 23.8073V24.0739C87.2583 27.1615 88.4081 28.7054 90.7076 28.7054ZM97.4735 30.7046C95.6825 32.3262 93.4162 33.137 90.6744 33.137C87.9327 33.137 85.6663 32.3373 83.8754 30.7379C82.0844 29.1385 81.1889 26.9727 81.1889 24.2405V23.9739C81.1889 21.2194 82.0844 19.0092 83.8754 17.3432C85.6884 15.6772 87.9658 14.8441 90.7076 14.8441C93.4272 14.8441 95.6825 15.666 97.4735 17.3098C99.2645 18.9314 100.16 21.0972 100.16 23.8073V24.0739C100.16 26.8505 99.2645 29.0608 97.4735 30.7046Z" fill="white"/>
<path d="M108.562 33.137C106.439 33.137 104.692 32.3706 103.321 30.8379C101.95 29.3051 101.265 27.0949 101.265 24.2071V23.9406C101.265 21.075 101.95 18.8426 103.321 17.2432C104.714 15.6438 106.483 14.8441 108.628 14.8441C111.082 14.8441 112.862 15.8215 113.968 17.7763V7.64697H119.904V32.7371H113.968V29.9049C113.503 30.8601 112.796 31.6376 111.845 32.2373C110.916 32.8371 109.822 33.137 108.562 33.137ZM110.651 28.5721C111.757 28.5721 112.608 28.1945 113.205 27.4392C113.824 26.6839 114.134 25.5733 114.134 24.1072V23.8406C114.134 22.3745 113.835 21.2638 113.238 20.5086C112.663 19.7311 111.823 19.3424 110.717 19.3424C108.44 19.3424 107.301 20.8529 107.301 23.8739V24.1405C107.301 25.5844 107.6 26.6839 108.197 27.4392C108.794 28.1945 109.612 28.5721 110.651 28.5721Z" fill="white"/>
<path d="M131.276 33.137C128.49 33.137 126.223 32.3484 124.476 30.7712C122.73 29.1941 121.856 27.0171 121.856 24.2405V23.9739C121.856 21.2416 122.752 19.0425 124.543 17.3765C126.334 15.6883 128.567 14.8441 131.242 14.8441C133.785 14.8441 135.886 15.5994 137.544 17.1099C139.224 18.6204 140.065 20.864 140.065 23.8406V25.4067H127.859C127.948 26.5618 128.302 27.4614 128.921 28.1056C129.562 28.7276 130.413 29.0386 131.475 29.0386C133.221 29.0386 134.227 28.35 134.493 26.9727H140.065C139.799 28.9497 138.915 30.4713 137.411 31.5376C135.93 32.6038 133.885 33.137 131.276 33.137ZM127.926 22.0413H134.294C134.183 19.8644 133.166 18.7759 131.242 18.7759C130.336 18.7759 129.595 19.0647 129.02 19.6423C128.445 20.1976 128.081 20.9973 127.926 22.0413Z" fill="white"/>
<path d="M146.213 32.7371L139.845 15.3106H146.18L149.795 26.5396L153.343 15.3106H159.015L152.68 32.7371H146.213Z" fill="white"/>
<path d="M167.961 28.7054C169.067 28.7054 169.907 28.3166 170.482 27.5392C171.079 26.7395 171.378 25.6066 171.378 24.1405V23.8739C171.378 20.8307 170.239 19.3091 167.961 19.3091C166.856 19.3091 166.005 19.6978 165.408 20.4753C164.811 21.2305 164.512 22.3412 164.512 23.8073V24.0739C164.512 27.1615 165.662 28.7054 167.961 28.7054ZM174.727 30.7046C172.936 32.3262 170.67 33.137 167.928 33.137C165.187 33.137 162.92 32.3373 161.129 30.7379C159.338 29.1385 158.443 26.9727 158.443 24.2405V23.9739C158.443 21.2194 159.338 19.0092 161.129 17.3432C162.942 15.6772 165.22 14.8441 167.961 14.8441C170.681 14.8441 172.936 15.666 174.727 17.3098C176.518 18.9314 177.414 21.0972 177.414 23.8073V24.0739C177.414 26.8505 176.518 29.0608 174.727 30.7046Z" fill="white"/>
<path d="M176.498 32.7371L182.269 23.8739L176.863 15.3106H183.695L186.382 19.9088L189.002 15.3106H195.105L189.632 23.4074L195.635 32.7371H188.803L185.719 27.5392L182.568 32.7371H176.498Z" fill="white"/>
<defs>
<filter id="filter0_dd" x="0.102891" y="6.1827" width="28.3649" height="28.3649" filterUnits="userSpaceOnUse" color-interpolation-filters="sRGB">
<feFlood flood-opacity="0" result="BackgroundImageFix"/>
<feColorMatrix in="SourceAlpha" type="matrix" values="0 0 0 0 0 0 0 0 0 0 0 0 0 0 0 0 0 0 127 0"/>
<feOffset dy="0.0944614"/>
<feGaussianBlur stdDeviation="0.106269"/>
<feColorMatrix type="matrix" values="0 0 0 0 0 0 0 0 0 0 0 0 0 0 0 0 0 0 0.13 0"/>
<feBlend mode="normal" in2="BackgroundImageFix" result="effect1_dropShadow"/>
<feColorMatrix in="SourceAlpha" type="matrix" values="0 0 0 0 0 0 0 0 0 0 0 0 0 0 0 0 0 0 127 0"/>
<feOffset dy="0.0177115"/>
<feGaussianBlur stdDeviation="0.0265673"/>
<feColorMatrix type="matrix" values="0 0 0 0 0 0 0 0 0 0 0 0 0 0 0 0 0 0 0.1 0"/>
<feBlend mode="normal" in2="effect1_dropShadow" result="effect2_dropShadow"/>
<feBlend mode="normal" in="SourceGraphic" in2="effect2_dropShadow" result="shape"/>
</filter>
<clipPath id="clip0">
<rect width="46.5192" height="41" fill="white"/>
</clipPath>
</defs>
</svg>
