<svg width="590" height="520" viewBox="0 0 590 520" fill="none" xmlns="http://www.w3.org/2000/svg">
<g clip-path="url(#clip0)">
<path d="M350 266H590V499C590 510.046 581.046 519 570 519H350V266Z" fill="#33BBFF"/>
<path d="M590 133.182H177.136V266.364H590V133.182Z" fill="#66CCFF"/>
<path d="M350 0H570C581.046 0 590 8.9543 590 20V133H350V0Z" fill="#99DDFF"/>
<path d="M177.136 20C177.136 8.95435 186.091 0 197.136 0H350.273V519.409H197.136C186.091 519.409 177.136 510.455 177.136 499.409V20Z" fill="#0088CC"/>
<g filter="url(#filter0_dd)">
<path d="M338.359 79.9092H24C12.9543 79.9092 4 88.8635 4 99.9092V414.268C4 425.314 12.9543 434.268 24 434.268H338.359C349.405 434.268 358.359 425.314 358.359 414.268V99.9092C358.359 88.8635 349.405 79.9092 338.359 79.9092Z" fill="#0078D4"/>
</g>
<path d="M135.729 189.693C134.293 190.098 132.892 190.62 131.542 191.254C128.765 192.643 61.5897 230.63 48.4534 238.206C47.0276 239.029 47.2123 239.481 48.7786 238.975C56.7875 236.813 60.2063 238.01 82.955 250.941C96.826 258.826 101.525 261.3 102.1 261.019C112.493 255.923 155.58 230.668 158.051 228.223C174.678 211.779 158.349 183.603 135.722 189.695" fill="white"/>
<path d="M230.654 280.683C199.793 299.252 198.791 300.077 196.472 308.793C191.33 328.114 211.494 344.436 229.332 335.398C231.521 334.29 301.668 292.241 312.179 285.766C313.089 285.206 312.968 285.092 311.972 285.479C311.444 285.684 310.921 285.903 310.405 286.136C307.854 287.22 307.068 287.337 302.506 287.32C295.875 287.291 296.002 287.346 274.817 275.304C265.39 269.948 257.397 265.471 257.059 265.363C256.72 265.255 244.837 272.149 230.654 280.683Z" fill="white"/>
<path d="M55.3827 244.831C50.8208 245.727 49.4799 246.106 47.3069 247.096C46.4797 247.435 45.6901 247.858 44.9503 248.357C44.5512 248.626 44.1947 248.952 43.8496 249.288C43.1925 249.927 42.5091 250.539 41.8012 251.122C40.7853 251.986 40.2391 252.503 38.3263 255.17C37.6977 256.046 37.0641 256.953 36.7013 257.969C36.2964 259.102 35.7869 260.911 35.3565 263.471C34.491 268.578 35.3182 273.829 37.7123 278.423C38.2928 279.441 38.6643 280.598 39.4438 281.473C41.3196 283.578 45.12 287.145 45.3434 286.804C45.3937 286.723 45.8019 286.967 46.2452 287.346C47.1228 288.097 55.0504 292.629 120.624 329.868C134.47 337.727 135.775 338.201 142.907 337.917C163.076 337.11 172.242 311.219 157.083 297.874C155.17 296.193 114.246 272.568 104.757 267.668C102.333 266.416 93.1054 261.267 84.2595 256.224C75.4136 251.18 67.1579 246.704 65.9231 246.27C62.3085 244.994 57.7239 244.37 55.3841 244.831" fill="white"/>
<path d="M211.917 189.463C198.01 192.924 191.234 208.847 197.975 222.21C200.394 227.002 202.771 228.835 217.193 237.04C224.387 241.135 235.004 247.182 240.784 250.478C246.565 253.775 252.547 257.11 254.08 257.885C255.614 258.661 264.196 263.461 273.154 268.555C292.799 279.72 292.614 279.643 299.116 279.679C314.164 279.767 324.519 266.447 320.764 251.835C318.857 244.42 315.686 241.085 304.478 234.718C263.545 211.461 244.371 200.562 236.817 196.248C224.816 189.399 218.784 187.753 211.917 189.463Z" fill="white"/>
</g>
<defs>
<filter id="filter0_dd" x="0.4" y="77.9092" width="361.559" height="361.559" filterUnits="userSpaceOnUse" color-interpolation-filters="sRGB">
<feFlood flood-opacity="0" result="BackgroundImageFix"/>
<feColorMatrix in="SourceAlpha" type="matrix" values="0 0 0 0 0 0 0 0 0 0 0 0 0 0 0 0 0 0 127 0"/>
<feOffset dy="1.6"/>
<feGaussianBlur stdDeviation="1.8"/>
<feColorMatrix type="matrix" values="0 0 0 0 0 0 0 0 0 0 0 0 0 0 0 0 0 0 0.13 0"/>
<feBlend mode="normal" in2="BackgroundImageFix" result="effect1_dropShadow"/>
<feColorMatrix in="SourceAlpha" type="matrix" values="0 0 0 0 0 0 0 0 0 0 0 0 0 0 0 0 0 0 127 0"/>
<feOffset dy="0.3"/>
<feGaussianBlur stdDeviation="0.45"/>
<feColorMatrix type="matrix" values="0 0 0 0 0 0 0 0 0 0 0 0 0 0 0 0 0 0 0.1 0"/>
<feBlend mode="normal" in2="effect1_dropShadow" result="effect2_dropShadow"/>
<feBlend mode="normal" in="SourceGraphic" in2="effect2_dropShadow" result="shape"/>
</filter>
<clipPath id="clip0">
<rect width="590" height="520" fill="white"/>
</clipPath>
</defs>
</svg>
