<svg width="167" height="35" viewBox="0 0 167 35" fill="none" xmlns="http://www.w3.org/2000/svg">
<g clip-path="url(#clip0)">
<path d="M23.5568 17.9033H39.71V33.5855C39.71 34.3289 39.1074 34.9316 38.3639 34.9316H23.5568V17.9033Z" fill="#33BBFF"/>
<path d="M39.7101 8.96387H11.9221V17.9277H39.7101V8.96387Z" fill="#66CCFF"/>
<path d="M23.5568 0H38.3639C39.1074 0 39.71 0.602672 39.71 1.34611V8.95161H23.5568V0Z" fill="#99DDFF"/>
<path d="M11.9221 1.34611C11.9221 0.602676 12.5248 0 13.2682 0H23.5752V34.959H13.2682C12.5248 34.959 11.9221 34.3563 11.9221 33.6129V1.34611Z" fill="#0088CC"/>
<g filter="url(#filter0_dd)">
<path d="M22.7734 5.37793H1.61539C0.87196 5.37793 0.269287 5.9806 0.269287 6.72404V27.8821C0.269287 28.6255 0.87196 29.2282 1.61539 29.2282H22.7734C23.5169 29.2282 24.1195 28.6255 24.1195 27.8821V6.72404C24.1195 5.9806 23.5169 5.37793 22.7734 5.37793Z" fill="#0078D4"/>
</g>
<path d="M9.13529 12.7669C9.03864 12.7941 8.94435 12.8293 8.85349 12.872C8.66658 12.9654 4.14531 15.5222 3.26117 16.0321C3.1652 16.0875 3.17763 16.1179 3.28305 16.0838C3.8221 15.9383 4.0522 16.0189 5.58331 16.8892C6.5169 17.4199 6.83318 17.5864 6.87188 17.5675C7.57139 17.2245 10.4714 15.5247 10.6377 15.3602C11.7568 14.2534 10.6577 12.357 9.13482 12.767" fill="white"/>
<path d="M15.5241 18.8916C13.447 20.1413 13.3795 20.1969 13.2235 20.7835C12.8774 22.0839 14.2345 23.1825 15.4351 22.5742C15.5824 22.4996 20.3037 19.6695 21.0111 19.2337C21.0724 19.196 21.0643 19.1883 20.9972 19.2144C20.9617 19.2281 20.9265 19.2429 20.8918 19.2586C20.7201 19.3315 20.6672 19.3394 20.3601 19.3383C19.9138 19.3363 19.9224 19.34 18.4965 18.5295C17.862 18.169 17.324 17.8677 17.3013 17.8604C17.2785 17.8532 16.4787 18.3172 15.5241 18.8916Z" fill="white"/>
<path d="M3.72753 16.4789C3.42049 16.5392 3.33024 16.5648 3.18399 16.6314C3.12831 16.6542 3.07517 16.6827 3.02537 16.7163C2.99851 16.7344 2.97452 16.7563 2.95129 16.7789C2.90706 16.8219 2.86107 16.8631 2.81342 16.9024C2.74505 16.9605 2.70829 16.9953 2.57954 17.1748C2.53724 17.2338 2.49459 17.2948 2.47017 17.3632C2.44292 17.4395 2.40863 17.5612 2.37966 17.7335C2.32141 18.0772 2.37708 18.4307 2.53822 18.7399C2.57729 18.8084 2.60229 18.8862 2.65476 18.9451C2.78101 19.0868 3.0368 19.3269 3.05183 19.3039C3.05522 19.2985 3.08269 19.3149 3.11253 19.3404C3.1716 19.391 3.70516 19.696 8.11861 22.2024C9.05052 22.7313 9.13835 22.7632 9.61838 22.7441C10.9759 22.6898 11.5928 20.9472 10.5725 20.049C10.4437 19.9359 7.68934 18.3458 7.05068 18.016C6.88753 17.9317 6.26647 17.5852 5.67109 17.2457C5.07572 16.9063 4.52006 16.605 4.43696 16.5758C4.19367 16.4899 3.88511 16.4479 3.72762 16.4789" fill="white"/>
<path d="M14.2631 12.7521C13.3271 12.985 12.871 14.0567 13.3247 14.9561C13.4875 15.2787 13.6475 15.402 14.6182 15.9543C15.1024 16.2299 15.817 16.6369 16.206 16.8587C16.5951 17.0806 16.9977 17.3051 17.1009 17.3572C17.2041 17.4095 17.7818 17.7325 18.3847 18.0754C19.7069 18.8269 19.6944 18.8217 20.1321 18.8241C21.1449 18.83 21.8418 17.9335 21.5891 16.95C21.4607 16.451 21.2473 16.2265 20.493 15.798C17.7379 14.2327 16.4474 13.4991 15.939 13.2087C15.1313 12.7478 14.7253 12.637 14.2631 12.7521Z" fill="white"/>
</g>
<path d="M58.9737 28.2863C55.5197 28.2863 52.8961 27.3572 51.1031 25.4989C49.31 23.6406 48.4135 21.1092 48.4135 17.9046V17.677C48.4135 14.5862 49.3855 12.0832 51.3295 10.1681C53.2736 8.25289 55.7462 7.29531 58.7472 7.29531C61.4651 7.29531 63.6545 7.9495 65.3155 9.25788C66.9764 10.5473 67.9201 12.5004 68.1466 15.1172H62.1729C61.9464 12.9745 60.8139 11.9031 58.7755 11.9031C57.4543 11.9031 56.4162 12.4056 55.6612 13.4106C54.9062 14.4156 54.5288 15.8282 54.5288 17.6486V17.8761C54.5288 19.7155 54.9062 21.1376 55.6612 22.1426C56.4162 23.1286 57.4826 23.6217 58.8604 23.6217C59.8985 23.6217 60.7479 23.3467 61.4085 22.7968C62.088 22.2279 62.4938 21.3936 62.6259 20.2938H68.4014C68.2127 22.8727 67.269 24.8542 65.5703 26.2384C63.8716 27.6037 61.6727 28.2863 58.9737 28.2863Z" fill="#06090F"/>
<path d="M77.4306 24.5034C78.3744 24.5034 79.0916 24.1716 79.5823 23.5079C80.0919 22.8253 80.3467 21.8582 80.3467 20.6067V20.3791C80.3467 17.7813 79.3747 16.4824 77.4306 16.4824C76.4869 16.4824 75.7602 16.8143 75.2506 17.4779C74.741 18.1227 74.4862 19.0708 74.4862 20.3223V20.5498C74.4862 23.1855 75.4677 24.5034 77.4306 24.5034ZM83.2062 26.21C81.6774 27.5942 79.7427 28.2863 77.4023 28.2863C75.0619 28.2863 73.1273 27.6037 71.5984 26.2384C70.0696 24.8732 69.3052 23.0244 69.3052 20.692V20.4645C69.3052 18.1132 70.0696 16.2264 71.5984 14.8043C73.1461 13.3821 75.0902 12.6711 77.4306 12.6711C79.7522 12.6711 81.6774 13.3727 83.2062 14.7758C84.735 16.1601 85.4994 18.0089 85.4994 20.3223V20.5498C85.4994 22.9201 84.735 24.8068 83.2062 26.21Z" fill="#06090F"/>
<path d="M92.6713 28.2863C90.8594 28.2863 89.3683 27.6321 88.1981 26.3238C87.0279 25.0154 86.4428 23.1286 86.4428 20.6636V20.436C86.4428 17.9899 87.0279 16.0842 88.1981 14.719C89.3872 13.3537 90.8971 12.6711 92.728 12.6711C94.823 12.6711 96.3424 13.5054 97.2861 15.1741V6.52734H102.354V27.945H97.2861V25.5273C96.8898 26.3427 96.2858 27.0064 95.4742 27.5184C94.6815 28.0303 93.7472 28.2863 92.6713 28.2863ZM94.455 24.3896C95.3987 24.3896 96.1254 24.0673 96.635 23.4226C97.1634 22.7778 97.4277 21.8297 97.4277 20.5782V20.3507C97.4277 19.0992 97.1729 18.1511 96.6633 17.5064C96.1725 16.8427 95.4553 16.5109 94.5116 16.5109C92.5675 16.5109 91.5955 17.8003 91.5955 20.3791V20.6067C91.5955 21.8392 91.8503 22.7778 92.3599 23.4226C92.8695 24.0673 93.5679 24.3896 94.455 24.3896Z" fill="#06090F"/>
<path d="M112.061 28.2863C109.682 28.2863 107.748 27.6132 106.257 26.2669C104.766 24.9206 104.02 23.0623 104.02 20.692V20.4645C104.02 18.1321 104.785 16.2549 106.313 14.8327C107.842 13.3916 109.748 12.6711 112.032 12.6711C114.203 12.6711 115.996 13.3158 117.411 14.6052C118.846 15.8946 119.563 17.8098 119.563 20.3507V21.6875H109.144C109.22 22.6736 109.522 23.4415 110.05 23.9914C110.598 24.5224 111.324 24.7878 112.23 24.7878C113.722 24.7878 114.58 24.2 114.807 23.0244H119.563C119.337 24.712 118.582 26.0109 117.298 26.9211C116.034 27.8312 114.288 28.2863 112.061 28.2863ZM109.201 18.8148H114.637C114.543 16.9565 113.674 16.0273 112.032 16.0273C111.258 16.0273 110.626 16.2739 110.135 16.7669C109.645 17.2409 109.333 17.9236 109.201 18.8148Z" fill="#06090F"/>
<path d="M124.811 27.945L119.376 13.0693H124.783L127.869 22.6546L130.898 13.0693H135.74L130.332 27.945H124.811Z" fill="#06090F"/>
<path d="M143.377 24.5034C144.32 24.5034 145.038 24.1716 145.528 23.5079C146.038 22.8253 146.293 21.8582 146.293 20.6067V20.3791C146.293 17.7813 145.321 16.4824 143.377 16.4824C142.433 16.4824 141.706 16.8143 141.197 17.4779C140.687 18.1227 140.432 19.0708 140.432 20.3223V20.5498C140.432 23.1855 141.414 24.5034 143.377 24.5034ZM149.152 26.21C147.624 27.5942 145.689 28.2863 143.348 28.2863C141.008 28.2863 139.073 27.6037 137.545 26.2384C136.016 24.8732 135.251 23.0244 135.251 20.692V20.4645C135.251 18.1132 136.016 16.2264 137.545 14.8043C139.092 13.3821 141.036 12.6711 143.377 12.6711C145.698 12.6711 147.624 13.3727 149.152 14.7758C150.681 16.1601 151.446 18.0089 151.446 20.3223V20.5498C151.446 22.9201 150.681 24.8068 149.152 26.21Z" fill="#06090F"/>
<path d="M150.664 27.945L155.59 20.3791L150.976 13.0693H156.808L159.101 16.9944L161.338 13.0693H166.547L161.876 19.9809L167 27.945H161.168L158.535 23.5079L155.845 27.945H150.664Z" fill="#06090F"/>
<defs>
<filter id="filter0_dd" x="0.0878584" y="5.27714" width="24.2131" height="24.2131" filterUnits="userSpaceOnUse" color-interpolation-filters="sRGB">
<feFlood flood-opacity="0" result="BackgroundImageFix"/>
<feColorMatrix in="SourceAlpha" type="matrix" values="0 0 0 0 0 0 0 0 0 0 0 0 0 0 0 0 0 0 127 0"/>
<feOffset dy="0.080635"/>
<feGaussianBlur stdDeviation="0.0907144"/>
<feColorMatrix type="matrix" values="0 0 0 0 0 0 0 0 0 0 0 0 0 0 0 0 0 0 0.13 0"/>
<feBlend mode="normal" in2="BackgroundImageFix" result="effect1_dropShadow"/>
<feColorMatrix in="SourceAlpha" type="matrix" values="0 0 0 0 0 0 0 0 0 0 0 0 0 0 0 0 0 0 127 0"/>
<feOffset dy="0.0151191"/>
<feGaussianBlur stdDeviation="0.0226786"/>
<feColorMatrix type="matrix" values="0 0 0 0 0 0 0 0 0 0 0 0 0 0 0 0 0 0 0.1 0"/>
<feBlend mode="normal" in2="effect1_dropShadow" result="effect2_dropShadow"/>
<feBlend mode="normal" in="SourceGraphic" in2="effect2_dropShadow" result="shape"/>
</filter>
<clipPath id="clip0">
<rect width="39.7101" height="34.9988" fill="white"/>
</clipPath>
</defs>
</svg>
