<svg width="681" height="395" viewBox="0 0 681 395" fill="none" xmlns="http://www.w3.org/2000/svg">
<g opacity="0.7" filter="url(#filter0_b)">
<path fill-rule="evenodd" clip-rule="evenodd" d="M59.9716 175.945L329.266 8.38144C348.991 -3.6535 382.439 -2.72772 403.88 11.1588L662.883 172.242C685.181 186.129 686.896 206.495 668.028 218.53L398.734 387.02C379.866 399.055 346.419 397.203 324.12 383.317L65.1174 222.233C42.8191 208.347 41.1038 187.98 59.9716 175.945ZM106.517 178.794L336.614 35.4283C353.469 25.1313 382.048 25.9234 400.368 37.8045L621.672 175.626C640.724 187.507 642.19 204.933 626.068 215.23L395.971 359.388C379.849 369.685 351.27 368.101 332.218 356.22L110.914 218.398C91.8612 206.517 90.3955 189.091 106.517 178.794Z" fill="url(#paint0_radial)"/>
</g>
<g opacity="0.7" filter="url(#filter1_b)">
<path fill-rule="evenodd" clip-rule="evenodd" d="M621.028 175.945L351.734 8.38144C332.009 -3.6535 298.561 -2.72772 277.12 11.1588L18.1173 172.242C-4.18097 186.129 -5.89612 206.495 12.9717 218.53L282.266 387.02C301.134 399.055 334.581 397.203 356.88 383.317L615.883 222.233C638.181 208.347 639.896 187.98 621.028 175.945ZM574.483 178.794L344.386 35.4283C327.531 25.1313 298.952 25.9234 280.632 37.8045L59.3284 175.626C40.2758 187.507 38.8104 204.933 54.9318 215.23L285.029 359.388C301.151 369.685 329.73 368.101 348.782 356.22L570.086 218.398C589.139 206.517 590.604 189.091 574.483 178.794Z" fill="url(#paint1_radial)"/>
</g>
<g opacity="0.7">
<g style="mix-blend-mode:luminosity" opacity="0.7">
<path d="M490.29 139.941L349.822 58.0291C344.453 54.8787 337.296 53.9785 330.138 53.9785C335.506 54.4286 340.427 55.7788 344.453 58.0291L484.922 139.941C494.764 145.792 493.869 155.693 482.238 162.444L347.137 240.755C341.769 243.906 334.612 245.706 327.901 246.156C336.401 246.606 345.795 244.806 352.506 240.755L487.606 162.444C498.79 156.143 500.132 145.792 490.29 139.941Z" fill="#EBC0FF"/>
</g>
<g style="mix-blend-mode:luminosity" opacity="0.7">
<path d="M319.849 242.555L178.933 161.093C169.091 155.243 169.986 145.341 181.617 138.59L316.717 60.2789C322.086 57.1284 328.796 55.3281 335.953 54.8781C327.454 54.428 318.059 56.2283 310.454 60.2789L175.354 138.59C163.723 145.341 162.381 155.243 172.67 161.093L313.138 243.005C318.507 246.156 325.664 247.506 333.269 246.606C328.348 246.156 323.428 244.805 319.849 242.555Z" fill="#33BBFF"/>
</g>
<g opacity="0.7" filter="url(#filter2_d)">
<path d="M497 150.736H427.213L349.374 105.729C339.532 99.8784 322.085 100.779 310.454 107.53L235.746 151.186H165.959V198.443C165.512 202.493 167.749 206.094 172.67 208.794L313.138 290.706C322.98 296.557 340.427 295.657 352.058 288.906L487.158 210.594C492.974 206.994 496.552 202.493 496.552 198.443V150.736H497Z" fill="url(#paint2_linear)"/>
</g>
<g style="mix-blend-mode:luminosity" opacity="0.7">
<path d="M313.366 241.926L172.772 160.477C162.922 154.627 163.817 144.728 175.459 137.978L310.68 59.679C322.321 52.9291 339.783 52.0291 349.634 57.879L490.228 139.778C500.078 145.628 499.183 155.527 487.541 162.277L352.32 240.576C341.127 247.326 323.664 247.776 313.366 241.926Z" fill="url(#paint3_linear)"/>
</g>
<g opacity="0.7" filter="url(#filter3_b)">
<path d="M310.235 222.759L169.766 141.297C159.924 135.446 160.819 125.545 172.45 118.794L307.551 40.4827C319.182 33.7317 336.629 32.8315 346.47 38.6824L486.939 120.594C496.781 126.445 495.886 136.346 484.255 143.097L349.154 221.409C337.971 228.16 320.524 228.61 310.235 222.759Z" fill="url(#paint4_linear)"/>
</g>
<g opacity="0.7" filter="url(#filter4_b)">
<path d="M310.235 204.956L169.766 123.494C159.924 117.644 160.819 107.742 172.45 100.991L307.551 22.6799C319.182 15.929 336.629 15.0288 346.47 20.8796L486.939 102.791C496.781 108.642 495.886 118.544 484.255 125.295L349.154 203.606C337.971 210.357 320.524 210.807 310.235 204.956Z" fill="url(#paint5_linear)"/>
</g>
</g>
<g filter="url(#filter5_d)">
<path d="M242.324 91.8359L253.868 85.1306L255.133 85.8652L252.895 95.3392L252.328 95.1979L261.764 89.7169L263.337 90.6304L251.793 97.3357L250.512 96.5917L252.765 87.1459L253.333 87.2684L243.897 92.7494L242.324 91.8359Z" fill="white"/>
<path d="M257.743 100.924C256.932 100.453 256.397 99.9412 256.138 99.3888C255.889 98.8425 255.916 98.2932 256.219 97.7407C256.532 97.1819 257.127 96.6482 258.002 96.1397C258.856 95.6437 259.764 95.3047 260.726 95.1226C261.688 94.9405 262.639 94.9217 263.58 95.0661C264.531 95.2168 265.412 95.5276 266.223 95.9984C267.022 96.463 267.547 96.9684 267.795 97.5147C268.055 98.0672 268.028 98.6228 267.714 99.1816C267.411 99.7466 266.833 100.277 265.979 100.773C265.104 101.282 264.18 101.624 263.207 101.8C262.256 101.975 261.304 101.988 260.353 101.837C259.413 101.693 258.543 101.388 257.743 100.924ZM259.04 100.17C259.775 100.597 260.591 100.783 261.488 100.726C262.396 100.676 263.337 100.368 264.309 99.8031C265.25 99.2569 265.763 98.7201 265.85 98.1927C265.958 97.6653 265.644 97.1882 264.909 96.7613C264.174 96.3343 263.342 96.146 262.412 96.1962C261.504 96.2464 260.58 96.5447 259.64 97.0909C258.667 97.6559 258.132 98.199 258.035 98.7201C257.948 99.2475 258.283 99.7309 259.04 100.17Z" fill="white"/>
<path d="M268.746 107.183L267.044 106.194L283.727 102.474L285.138 103.294L278.734 112.984L277.047 112.005L282.933 103.482L283.452 103.784L268.746 107.183ZM272.119 105.827L274.064 105.413L280.047 108.888L279.317 110.009L272.119 105.827Z" fill="white"/>
<path d="M282.728 115.437C281.301 114.608 280.518 113.751 280.377 112.866L282.063 112.47C282.161 112.916 282.366 113.324 282.68 113.694C283.015 114.065 283.463 114.413 284.025 114.74C284.587 115.066 285.106 115.261 285.582 115.324C286.068 115.38 286.484 115.308 286.83 115.107C287.122 114.937 287.246 114.746 287.203 114.532C287.181 114.319 286.992 114.04 286.636 113.694L285.582 112.705C285.02 112.203 284.739 111.732 284.739 111.293C284.76 110.853 285.058 110.467 285.63 110.134C286.117 109.852 286.679 109.682 287.317 109.626C287.954 109.569 288.619 109.623 289.311 109.786C290.013 109.943 290.689 110.21 291.337 110.587C291.921 110.926 292.381 111.299 292.716 111.707C293.062 112.109 293.251 112.52 293.283 112.941L291.629 113.318C291.543 112.903 291.365 112.53 291.094 112.197C290.846 111.864 290.505 111.572 290.073 111.321C289.543 111.013 289.03 110.835 288.533 110.784C288.046 110.728 287.625 110.803 287.268 111.01C286.976 111.18 286.83 111.365 286.83 111.566C286.852 111.767 287.025 112.018 287.349 112.319L288.387 113.318C289.003 113.876 289.305 114.372 289.295 114.806C289.284 115.239 288.981 115.628 288.387 115.973C287.662 116.394 286.787 116.557 285.76 116.463C284.755 116.369 283.744 116.027 282.728 115.437Z" fill="white"/>
<path d="M290.803 120.127C289.376 119.298 288.593 118.441 288.452 117.556L290.138 117.16C290.236 117.606 290.441 118.014 290.755 118.385C291.09 118.755 291.538 119.104 292.1 119.43C292.662 119.756 293.181 119.951 293.657 120.014C294.143 120.07 294.559 119.998 294.905 119.797C295.197 119.628 295.321 119.436 295.278 119.223C295.256 119.009 295.067 118.73 294.711 118.385L293.657 117.396C293.095 116.894 292.814 116.423 292.814 115.983C292.835 115.544 293.133 115.158 293.705 114.825C294.192 114.542 294.754 114.373 295.392 114.316C296.029 114.26 296.694 114.313 297.386 114.476C298.088 114.633 298.764 114.9 299.413 115.277C299.996 115.616 300.456 115.989 300.791 116.398C301.137 116.799 301.326 117.211 301.358 117.631L299.704 118.008C299.618 117.594 299.44 117.22 299.169 116.887C298.921 116.555 298.58 116.263 298.148 116.011C297.618 115.704 297.105 115.525 296.608 115.475C296.121 115.418 295.7 115.493 295.343 115.701C295.051 115.87 294.905 116.055 294.905 116.256C294.927 116.457 295.1 116.708 295.424 117.01L296.462 118.008C297.078 118.567 297.38 119.063 297.37 119.496C297.359 119.929 297.056 120.318 296.462 120.664C295.737 121.084 294.862 121.248 293.835 121.153C292.83 121.059 291.819 120.717 290.803 120.127Z" fill="white"/>
<path d="M296.122 123.084L304.293 118.338L305.931 119.289L297.759 124.036L296.122 123.084ZM307.747 116.2L309.644 117.302L307.925 118.3L306.028 117.199L307.747 116.2Z" fill="white"/>
<path d="M300.192 129.649C298.949 128.927 298.133 128.139 297.744 127.285L299.284 126.692C299.522 127.144 299.809 127.543 300.144 127.888C300.479 128.233 300.922 128.566 301.473 128.886C302.23 129.326 302.997 129.545 303.775 129.545C304.554 129.545 305.332 129.319 306.11 128.867L308.234 127.634L308.526 127.671C308.007 127.822 307.45 127.907 306.856 127.926C306.283 127.944 305.71 127.888 305.137 127.756C304.586 127.624 304.067 127.417 303.581 127.134C302.857 126.714 302.386 126.246 302.17 125.731C301.976 125.216 302.024 124.692 302.316 124.159C302.619 123.631 303.181 123.129 304.002 122.652C304.813 122.181 305.672 121.857 306.58 121.682C307.499 121.512 308.396 121.487 309.272 121.606C310.169 121.726 310.98 121.996 311.704 122.416C312.439 122.843 312.887 123.311 313.049 123.819C313.212 124.328 313.066 124.821 312.612 125.298L312.498 125.138L314.249 124.121L315.887 125.072L307.877 129.724C306.624 130.453 305.354 130.807 304.067 130.788C302.77 130.776 301.479 130.396 300.192 129.649ZM305.283 126.598C306.018 127.025 306.834 127.216 307.731 127.172C308.639 127.134 309.526 126.864 310.39 126.362C311.234 125.873 311.688 125.364 311.752 124.837C311.839 124.309 311.515 123.832 310.78 123.405C310.034 122.972 309.201 122.771 308.283 122.802C307.375 122.84 306.494 123.107 305.64 123.603C304.775 124.105 304.31 124.62 304.246 125.147C304.192 125.681 304.537 126.164 305.283 126.598Z" fill="white"/>
<path d="M310.087 131.196L315.956 127.787C316.334 127.567 316.707 127.338 317.075 127.099C317.453 126.867 317.805 126.625 318.129 126.374L319.685 127.278L318.177 128.324L317.918 128.286C318.794 128.054 319.653 127.994 320.496 128.107C321.361 128.22 322.133 128.474 322.814 128.87C324.771 130.006 324.652 131.212 322.458 132.486L317.383 135.434L315.745 134.483L320.755 131.573C321.458 131.165 321.831 130.785 321.874 130.433C321.917 130.082 321.647 129.736 321.063 129.397C320.361 128.989 319.583 128.788 318.729 128.795C317.886 128.807 317.102 129.024 316.378 129.444L311.725 132.147L310.087 131.196Z" fill="white"/>
<path d="M319.698 136.779L325.567 133.369C325.945 133.15 326.318 132.92 326.686 132.682C327.064 132.45 327.415 132.208 327.74 131.957L329.296 132.861L327.788 133.906L327.561 133.85C328.372 133.617 329.183 133.542 329.993 133.624C330.804 133.705 331.539 133.938 332.198 134.321C332.977 134.773 333.387 135.237 333.431 135.714C333.495 136.192 333.193 136.7 332.523 137.24L332.409 136.854C333.231 136.59 334.084 136.502 334.971 136.59C335.879 136.678 336.689 136.929 337.403 137.344C338.311 137.871 338.716 138.427 338.619 139.01C338.532 139.588 337.938 140.197 336.835 140.837L331.761 143.785L330.123 142.834L335.133 139.924C335.835 139.516 336.225 139.145 336.3 138.813C336.387 138.486 336.16 138.166 335.619 137.852C334.992 137.488 334.279 137.325 333.479 137.362C332.69 137.406 331.923 137.645 331.177 138.078L326.556 140.762L324.918 139.811L329.928 136.901C330.631 136.493 331.02 136.122 331.096 135.79C331.171 135.457 330.944 135.137 330.415 134.829C329.777 134.459 329.058 134.292 328.258 134.33C327.469 134.374 326.702 134.613 325.956 135.046L321.335 137.73L319.698 136.779Z" fill="white"/>
<path d="M341.873 148.566C341.181 148.541 340.457 148.422 339.7 148.209C338.954 147.989 338.29 147.709 337.706 147.37C336.841 146.868 336.263 146.338 335.971 145.779C335.679 145.22 335.685 144.658 335.987 144.093C336.29 143.528 336.879 142.991 337.755 142.483C338.598 141.993 339.5 141.657 340.462 141.475C341.435 141.299 342.392 141.277 343.332 141.409C344.272 141.541 345.126 141.83 345.894 142.276C346.629 142.702 347.099 143.164 347.304 143.66C347.51 144.156 347.45 144.661 347.126 145.176C346.823 145.691 346.25 146.193 345.407 146.683L345.132 146.843L339.116 143.349L340.105 142.793L345.148 145.722L344.094 145.788C344.98 145.286 345.477 144.796 345.586 144.319C345.694 143.842 345.402 143.402 344.71 143.001C343.986 142.58 343.159 142.401 342.229 142.464C341.311 142.52 340.392 142.815 339.473 143.349C338.446 143.946 337.9 144.52 337.836 145.073C337.782 145.619 338.181 146.14 339.035 146.636C339.5 146.906 340.024 147.122 340.608 147.286C341.192 147.449 341.835 147.552 342.537 147.596L341.873 148.566Z" fill="white"/>
<path d="M342.941 150.279L348.81 146.87C349.189 146.651 349.562 146.421 349.929 146.183C350.307 145.951 350.659 145.709 350.983 145.458L352.539 146.362L351.032 147.407L350.772 147.369C351.648 147.137 352.507 147.078 353.35 147.191C354.215 147.304 354.988 147.558 355.669 147.953C357.625 149.09 357.506 150.295 355.312 151.57L350.237 154.517L348.6 153.566L353.61 150.656C354.312 150.248 354.685 149.868 354.728 149.517C354.771 149.165 354.501 148.82 353.918 148.481C353.215 148.073 352.437 147.872 351.583 147.878C350.74 147.891 349.956 148.107 349.232 148.528L344.579 151.231L342.941 150.279Z" fill="white"/>
<path d="M358.373 151.219L359.637 150.485L365.117 153.668L363.853 154.402L358.373 151.219ZM358.324 157.595L356.994 158.367C356.735 158.292 356.497 158.204 356.281 158.103C356.054 158.009 355.827 157.896 355.6 157.764C354.768 157.281 354.346 156.766 354.335 156.22C354.346 155.674 354.811 155.134 355.73 154.6L363.269 150.221L365.474 150.842L357.497 155.476C357.097 155.708 356.843 155.925 356.735 156.126C356.638 156.32 356.643 156.505 356.751 156.681C356.881 156.857 357.076 157.02 357.335 157.171C357.486 157.259 357.638 157.334 357.789 157.397C357.94 157.46 358.119 157.526 358.324 157.595Z" fill="white"/>
<path d="M361.198 161.016C359.772 160.187 358.988 159.33 358.847 158.445L360.534 158.049C360.631 158.495 360.836 158.903 361.15 159.274C361.485 159.644 361.933 159.993 362.495 160.319C363.057 160.646 363.576 160.84 364.052 160.903C364.538 160.959 364.954 160.887 365.3 160.686C365.592 160.517 365.716 160.325 365.673 160.112C365.652 159.898 365.462 159.619 365.106 159.274L364.052 158.285C363.49 157.783 363.209 157.312 363.209 156.872C363.23 156.433 363.528 156.047 364.1 155.714C364.587 155.431 365.149 155.262 365.787 155.205C366.424 155.149 367.089 155.202 367.781 155.365C368.483 155.522 369.159 155.789 369.808 156.166C370.391 156.505 370.851 156.879 371.186 157.287C371.532 157.688 371.721 158.1 371.753 158.52L370.099 158.897C370.013 158.483 369.835 158.109 369.564 157.776C369.316 157.444 368.975 157.152 368.543 156.901C368.013 156.593 367.5 156.414 367.003 156.364C366.516 156.307 366.095 156.383 365.738 156.59C365.446 156.759 365.3 156.944 365.3 157.145C365.322 157.346 365.495 157.597 365.819 157.899L366.857 158.897C367.473 159.456 367.775 159.952 367.765 160.385C367.754 160.818 367.451 161.207 366.857 161.553C366.133 161.973 365.257 162.137 364.23 162.043C363.225 161.948 362.214 161.606 361.198 161.016Z" fill="white"/>
<path d="M261.744 125.779L263.009 125.045L268.132 128.021L266.867 128.755L261.744 125.779ZM270.71 126.825C270.494 126.599 270.261 126.413 270.013 126.269C269.764 126.125 269.488 126.021 269.186 125.958C268.894 125.889 268.575 125.886 268.229 125.949C267.883 126.012 267.516 126.156 267.127 126.382L258.047 131.656L256.41 130.705L265.619 125.356C266.538 124.822 267.456 124.552 268.375 124.546C269.316 124.539 270.202 124.778 271.034 125.261C271.24 125.381 271.429 125.503 271.602 125.629C271.775 125.754 271.926 125.892 272.056 126.043L270.71 126.825Z" fill="white"/>
<path d="M264.949 135.797C264.139 135.326 263.604 134.814 263.344 134.262C263.096 133.716 263.123 133.166 263.425 132.614C263.739 132.055 264.333 131.521 265.209 131.013C266.063 130.517 266.971 130.178 267.933 129.996C268.895 129.814 269.846 129.795 270.786 129.939C271.737 130.09 272.618 130.401 273.429 130.871C274.229 131.336 274.753 131.841 275.002 132.388C275.261 132.94 275.234 133.496 274.921 134.055C274.618 134.62 274.04 135.15 273.186 135.646C272.31 136.155 271.386 136.497 270.413 136.673C269.462 136.848 268.511 136.861 267.56 136.71C266.619 136.566 265.749 136.261 264.949 135.797ZM266.246 135.043C266.981 135.47 267.797 135.656 268.695 135.599C269.603 135.549 270.543 135.241 271.516 134.676C272.456 134.13 272.97 133.593 273.056 133.066C273.164 132.538 272.851 132.061 272.116 131.634C271.381 131.207 270.548 131.019 269.619 131.069C268.711 131.119 267.787 131.418 266.846 131.964C265.874 132.529 265.338 133.072 265.241 133.593C265.155 134.121 265.49 134.604 266.246 135.043Z" fill="white"/>
<path d="M273.754 140.911C272.77 140.34 272.3 139.753 272.344 139.15C272.398 138.541 272.97 137.919 274.062 137.285L279.072 134.375L280.71 135.326L275.716 138.227C275.046 138.616 274.684 138.984 274.63 139.329C274.597 139.674 274.867 140.013 275.44 140.346C276.1 140.729 276.845 140.911 277.678 140.892C278.521 140.88 279.299 140.666 280.012 140.252L284.601 137.587L286.238 138.538L278.067 143.284L276.478 142.361L278.213 141.354L278.472 141.429C277.618 141.661 276.781 141.727 275.959 141.627C275.138 141.526 274.403 141.288 273.754 140.911Z" fill="white"/>
<path d="M280.433 144.659L286.303 141.25C286.681 141.03 287.054 140.801 287.421 140.562C287.8 140.33 288.151 140.088 288.475 139.837L290.032 140.741L288.524 141.787L288.264 141.749C289.14 141.517 289.999 141.457 290.842 141.57C291.707 141.683 292.48 141.937 293.161 142.333C295.117 143.469 294.998 144.675 292.804 145.949L287.729 148.897L286.092 147.946L291.102 145.036C291.804 144.628 292.177 144.248 292.22 143.896C292.264 143.544 291.993 143.199 291.41 142.86C290.707 142.452 289.929 142.251 289.075 142.257C288.232 142.27 287.448 142.487 286.724 142.907L282.071 145.61L280.433 144.659Z" fill="white"/>
<path d="M297.535 154.592L295.913 153.651L298.054 152.407L298.021 152.652C297.189 152.922 296.335 153.01 295.459 152.916C294.606 152.822 293.816 152.564 293.092 152.144C292.379 151.729 291.92 151.262 291.714 150.741C291.53 150.219 291.606 149.686 291.941 149.14C292.287 148.587 292.892 148.06 293.757 147.557C294.611 147.061 295.497 146.716 296.416 146.521C297.346 146.333 298.254 146.295 299.14 146.408C300.037 146.528 300.848 146.798 301.572 147.218C302.296 147.639 302.734 148.1 302.885 148.603C303.047 149.111 302.901 149.604 302.447 150.081L302.042 150.072L307.83 146.71L309.468 147.661L297.535 154.592ZM294.778 151.616C295.513 152.043 296.335 152.225 297.243 152.163C298.162 152.106 299.097 151.802 300.048 151.249C300.967 150.715 301.475 150.182 301.572 149.648C301.691 149.114 301.383 148.634 300.648 148.207C299.902 147.774 299.064 147.582 298.135 147.633C297.227 147.683 296.313 147.975 295.395 148.509C294.443 149.061 293.914 149.607 293.806 150.147C293.708 150.693 294.033 151.183 294.778 151.616Z" fill="white"/>
<g style="mix-blend-mode:luminosity">
<path d="M361.398 86.5449L391.053 103.77L365.719 118.485C364.152 119.395 361.61 119.395 360.043 118.485L333.227 102.909L361.398 86.5449Z" fill="#33BBFF"/>
<rect width="53.1561" height="17.1471" transform="matrix(0.864712 0.502269 -0.864712 0.502269 359.916 68.459)" fill="#66CCFF"/>
<path d="M371.905 61.4962C373.472 60.5857 376.013 60.5857 377.581 61.4962L417.869 84.8977C419.437 85.8082 419.437 87.2844 417.869 88.1948L405.88 95.1588L359.915 68.4601L371.905 61.4962Z" fill="#99DDFF"/>
<path d="M371.905 61.4982C373.472 60.5877 376.013 60.5877 377.581 61.4982L394.018 71.0458L336.192 104.634L319.754 95.0868C318.187 94.1763 318.187 92.7001 319.754 91.7897L371.905 61.4982Z" fill="#0088CC"/>
</g>
<g filter="url(#filter6_dd)">
<rect width="45.6237" height="45.6237" rx="6.56441" transform="matrix(0.864712 0.502269 -0.864712 0.502269 348.053 52.9551)" fill="#CA2C2C"/>
</g>
<path d="M365.722 76.0216C365.517 75.9549 365.303 75.8981 365.082 75.8518C364.567 75.7522 350.212 73.4396 350.212 73.4561C350.318 73.5061 350.433 73.5495 350.555 73.5857C351.687 73.9638 351.934 74.2623 353.027 76.5695C353.694 77.9765 353.941 78.4403 354.037 78.4593C355.761 78.8018 363.37 79.955 363.917 79.9567C367.599 79.9685 368.918 77.0905 365.721 76.0212" fill="white"/>
<path d="M351.548 73.5901C350.941 73.353 350.749 73.2909 350.397 73.2144C350.232 73.1742 350.059 73.1468 349.882 73.1327C349.7 73.1335 349.517 73.1288 349.336 73.1186C349.096 73.1074 348.975 73.1065 348.245 73.1807C348.206 73.1773 347.848 73.2503 347.243 73.5004C346.578 73.7748 346.086 74.1678 345.841 74.6197C345.817 74.6719 345.782 74.7223 345.738 74.7701C345.655 74.8111 345.674 75.6653 345.758 75.6552C345.772 75.6531 345.79 75.6954 345.798 75.7485C345.812 75.8539 346.19 76.6595 349.344 83.3081C350.011 84.7117 350.103 84.8267 350.929 85.2696C353.264 86.5217 357.167 85.4401 356.965 83.5969C356.94 83.3644 355.014 79.1903 354.503 78.2597C354.372 78.0221 353.918 77.0924 353.495 76.1942C353.071 75.296 352.651 74.4727 352.562 74.3648C352.301 74.0485 351.86 73.7117 351.548 73.5902" fill="white"/>
<path d="M338.769 70.8497C333.266 70.0547 333.062 70.0432 331.834 70.457C329.11 71.3739 329.538 73.7334 332.53 74.3024C332.928 74.3781 347.559 76.505 347.518 76.4812C347.362 76.4359 347.203 76.3952 347.04 76.3595C346.636 76.2646 346.535 76.2214 346.029 75.9253C345.294 75.4946 345.302 75.5064 344.284 73.3577C343.831 72.4017 343.44 71.5953 343.414 71.5664C343.388 71.5376 341.298 71.215 338.769 70.8497Z" fill="white"/>
<path d="M345.765 64.4012C343.831 63.7257 341.304 64.3172 340.567 65.6173C340.303 66.0836 340.363 66.3558 341.056 67.8191C341.401 68.5491 341.909 69.6266 342.186 70.2137C342.463 70.8007 342.757 71.4032 342.842 71.5525C342.926 71.7018 343.347 72.5672 343.777 73.4759C344.721 75.4682 344.709 75.4513 345.429 75.8741C347.095 76.8529 349.73 76.6611 350.939 75.4734C351.552 74.8706 351.571 74.4499 351.032 73.3133C349.064 69.1624 348.143 67.2177 347.782 66.4502C347.208 65.2312 346.72 64.7347 345.765 64.4012Z" fill="white"/>
</g>
<defs>
<filter id="filter0_b" x="-121.269" y="-168.269" width="970.538" height="731.538" filterUnits="userSpaceOnUse" color-interpolation-filters="sRGB">
<feFlood flood-opacity="0" result="BackgroundImageFix"/>
<feGaussianBlur in="BackgroundImage" stdDeviation="84.1344"/>
<feComposite in2="SourceAlpha" operator="in" result="effect1_backgroundBlur"/>
<feBlend mode="normal" in="SourceGraphic" in2="effect1_backgroundBlur" result="shape"/>
</filter>
<filter id="filter1_b" x="-168.269" y="-168.269" width="970.538" height="731.538" filterUnits="userSpaceOnUse" color-interpolation-filters="sRGB">
<feFlood flood-opacity="0" result="BackgroundImageFix"/>
<feGaussianBlur in="BackgroundImage" stdDeviation="84.1344"/>
<feComposite in2="SourceAlpha" operator="in" result="effect1_backgroundBlur"/>
<feBlend mode="normal" in="SourceGraphic" in2="effect1_backgroundBlur" result="shape"/>
</filter>
<filter id="filter2_d" x="123.388" y="67.837" width="416.128" height="277.767" filterUnits="userSpaceOnUse" color-interpolation-filters="sRGB">
<feFlood flood-opacity="0" result="BackgroundImageFix"/>
<feColorMatrix in="SourceAlpha" type="matrix" values="0 0 0 0 0 0 0 0 0 0 0 0 0 0 0 0 0 0 127 0"/>
<feOffset dy="8.50315"/>
<feGaussianBlur stdDeviation="21.2579"/>
<feColorMatrix type="matrix" values="0 0 0 0 0.921269 0 0 0 0 0.754167 0 0 0 0 1 0 0 0 1 0"/>
<feBlend mode="normal" in2="BackgroundImageFix" result="effect1_dropShadow"/>
<feBlend mode="normal" in="SourceGraphic" in2="effect1_dropShadow" result="shape"/>
</filter>
<filter id="filter3_b" x="-134.61" y="-262.807" width="925.925" height="787.251" filterUnits="userSpaceOnUse" color-interpolation-filters="sRGB">
<feFlood flood-opacity="0" result="BackgroundImageFix"/>
<feGaussianBlur in="BackgroundImage" stdDeviation="148.805"/>
<feComposite in2="SourceAlpha" operator="in" result="effect1_backgroundBlur"/>
<feBlend mode="normal" in="SourceGraphic" in2="effect1_backgroundBlur" result="shape"/>
</filter>
<filter id="filter4_b" x="-134.61" y="-280.61" width="925.925" height="787.251" filterUnits="userSpaceOnUse" color-interpolation-filters="sRGB">
<feFlood flood-opacity="0" result="BackgroundImageFix"/>
<feGaussianBlur in="BackgroundImage" stdDeviation="148.805"/>
<feComposite in2="SourceAlpha" operator="in" result="effect1_backgroundBlur"/>
<feBlend mode="normal" in="SourceGraphic" in2="effect1_backgroundBlur" result="shape"/>
</filter>
<filter id="filter5_d" x="235.536" y="54.8867" width="190.298" height="134.336" filterUnits="userSpaceOnUse" color-interpolation-filters="sRGB">
<feFlood flood-opacity="0" result="BackgroundImageFix"/>
<feColorMatrix in="SourceAlpha" type="matrix" values="0 0 0 0 0 0 0 0 0 0 0 0 0 0 0 0 0 0 127 0"/>
<feOffset dy="20.3657"/>
<feGaussianBlur stdDeviation="3.39428"/>
<feColorMatrix type="matrix" values="0 0 0 0 0 0 0 0 0 0 0 0 0 0 0 0 0 0 0.25 0"/>
<feBlend mode="normal" in2="BackgroundImageFix" result="effect1_dropShadow"/>
<feBlend mode="normal" in="SourceGraphic" in2="effect1_dropShadow" result="shape"/>
</filter>
<filter id="filter6_dd" x="306.019" y="51.6045" width="84.0683" height="53.7838" filterUnits="userSpaceOnUse" color-interpolation-filters="sRGB">
<feFlood flood-opacity="0" result="BackgroundImageFix"/>
<feColorMatrix in="SourceAlpha" type="matrix" values="0 0 0 0 0 0 0 0 0 0 0 0 0 0 0 0 0 0 127 0"/>
<feOffset dy="2.62576"/>
<feGaussianBlur stdDeviation="2.95398"/>
<feColorMatrix type="matrix" values="0 0 0 0 0 0 0 0 0 0 0 0 0 0 0 0 0 0 0.13 0"/>
<feBlend mode="normal" in2="BackgroundImageFix" result="effect1_dropShadow"/>
<feColorMatrix in="SourceAlpha" type="matrix" values="0 0 0 0 0 0 0 0 0 0 0 0 0 0 0 0 0 0 127 0"/>
<feOffset dy="0.492331"/>
<feGaussianBlur stdDeviation="0.738496"/>
<feColorMatrix type="matrix" values="0 0 0 0 0 0 0 0 0 0 0 0 0 0 0 0 0 0 0.1 0"/>
<feBlend mode="normal" in2="effect1_dropShadow" result="effect2_dropShadow"/>
<feBlend mode="normal" in="SourceGraphic" in2="effect2_dropShadow" result="shape"/>
</filter>
<radialGradient id="paint0_radial" cx="0" cy="0" r="1" gradientUnits="userSpaceOnUse" gradientTransform="translate(115.5 186) rotate(25.6241) scale(122.553 76.6232)">
<stop stop-color="#8D139B" stop-opacity="0"/>
<stop offset="0.0001" stop-color="#2979E4"/>
<stop offset="1" stop-color="#8D139B" stop-opacity="0"/>
</radialGradient>
<radialGradient id="paint1_radial" cx="0" cy="0" r="1" gradientUnits="userSpaceOnUse" gradientTransform="translate(524 224) rotate(-151.002) scale(147.49 92.2143)">
<stop stop-color="#8D139B" stop-opacity="0"/>
<stop offset="0.0001" stop-color="#2979E4"/>
<stop offset="1" stop-color="#8D139B" stop-opacity="0"/>
</radialGradient>
<linearGradient id="paint2_linear" x1="166.215" y1="207.1" x2="490.196" y2="198.982" gradientUnits="userSpaceOnUse">
<stop stop-color="#A31FA9"/>
<stop offset="0.0001" stop-color="#2B2338"/>
<stop offset="1" stop-color="#0D1117"/>
</linearGradient>
<linearGradient id="paint3_linear" x1="238.211" y1="186.136" x2="486.808" y2="211.478" gradientUnits="userSpaceOnUse">
<stop stop-color="#33BBFF"/>
<stop offset="0.75" stop-color="#A1856E"/>
</linearGradient>
<linearGradient id="paint4_linear" x1="160.348" y1="130.734" x2="470.998" y2="207.14" gradientUnits="userSpaceOnUse">
<stop stop-color="#8D139B"/>
<stop offset="0.1651" stop-color="#851BA1"/>
<stop offset="0.4284" stop-color="#6E33B2"/>
<stop offset="0.7551" stop-color="#4958CD"/>
<stop offset="1" stop-color="#2979E4"/>
</linearGradient>
<linearGradient id="paint5_linear" x1="160.348" y1="112.932" x2="470.998" y2="189.337" gradientUnits="userSpaceOnUse">
<stop stop-color="#ED5C0C"/>
<stop offset="1" stop-color="#6E33B2"/>
</linearGradient>
</defs>
</svg>
