<svg width="430" height="272" viewBox="0 0 430 272" fill="none" xmlns="http://www.w3.org/2000/svg">
<g clip-path="url(#clip0)">
<path d="M380.127 179.286C378.044 197.098 373.717 211.4 367.777 222.805C359.872 238.002 346.352 244.125 334.274 250.532C330.783 252.38 327.155 253.955 323.421 255.243C301.443 262.857 276.844 260.836 257.522 256.817C243.969 253.995 230.213 252.259 216.383 251.624C212.439 251.447 208.49 251.359 204.539 251.36C198.445 251.369 88.7112 253.447 61.9942 199.454C55.398 186.135 50.8767 169.864 49.2524 150.032C44.6559 93.9638 69.9184 57.139 102.505 33.0694C164.147 -12.4619 248.641 -10.5524 309.375 36.1783C349.83 67.3057 387.707 114.415 380.127 179.286Z" fill="#B8CFFF"/>
<path opacity="0.1" d="M219.15 255.57C215.206 255.393 211.258 255.304 207.306 255.306L161.662 154.324L219.15 255.57Z" fill="black" fill-opacity="0.4"/>
<path d="M77.4487 218.595C85.1232 233.788 95.5641 243.854 107.291 250.259C110.679 252.106 114.203 253.681 117.828 254.968C139.166 262.581 163.05 260.562 181.809 256.542C194.967 253.721 208.324 251.985 221.751 251.352C225.581 251.175 229.415 251.086 233.251 251.087C239.169 251.095 274.836 254.525 280.751 254.968C319.189 257.872 378.772 246.026 374.334 195.249L309.432 66.0366L285.277 129.783L277.567 150.132L256.321 120.163L245.35 104.69L195.389 163.565L181.268 131.511C143.089 163.536 121.684 181.493 83.5039 213.519L78.0512 218.09L77.4487 218.595Z" fill="#F2F2F2"/>
<path opacity="0.1" d="M110.443 241.818C113.763 243.544 117.215 245.014 120.767 246.216L196.765 160.852L110.443 241.818Z" fill="black" fill-opacity="0.4"/>
<path opacity="0.1" d="M252.513 124.678L242.77 115.966L198.461 174.754L243.452 124.588L252.513 124.678Z" fill="black" fill-opacity="0.4"/>
<path opacity="0.1" d="M301.727 105.437L312.002 82.9492L326.23 115.694L313.978 92.0231L301.727 105.437Z" fill="black" fill-opacity="0.4"/>
<path d="M430 242.22C430 248.757 333.742 271.415 215 271.415C96.2584 271.415 0 248.757 0 242.22C0 235.684 96.2584 247.743 215 247.743C333.742 247.743 430 235.684 430 242.22Z" fill="#005A45"/>
<path d="M215 254.055C333.742 254.055 430 248.756 430 242.219C430 235.683 333.742 230.384 215 230.384C96.2584 230.384 0 235.683 0 242.219C0 248.756 96.2584 254.055 215 254.055Z" fill="#B8F8E0"/>
<path d="M301.772 235.271C301.772 235.271 304.761 235.179 305.662 234.539C306.563 233.898 310.261 233.133 310.484 234.161C310.708 235.187 314.978 239.269 311.602 239.296C308.226 239.324 303.76 238.771 302.86 238.225C301.961 237.678 301.772 235.271 301.772 235.271Z" fill="#A8A8A8" fill-opacity="0.4"/>
<path opacity="0.2" d="M311.663 238.937C308.287 238.964 303.82 238.412 302.921 237.865C302.235 237.449 301.963 235.955 301.872 235.266C301.808 235.268 301.772 235.269 301.772 235.269C301.772 235.269 301.961 237.677 302.86 238.223C303.76 238.77 308.226 239.322 311.602 239.295C312.576 239.287 312.913 238.941 312.895 238.428C312.759 238.738 312.388 238.932 311.663 238.937Z" fill="black" fill-opacity="0.4"/>
<path d="M353.253 244.088C353.253 244.088 357.742 243.405 358.983 242.277C360.224 241.147 365.659 239.323 366.183 240.83C366.708 242.337 373.888 247.713 368.804 248.368C363.722 249.022 356.888 249.003 355.433 248.342C353.977 247.681 353.253 244.088 353.253 244.088Z" fill="#A8A8A8" fill-opacity="0.4"/>
<path opacity="0.2" d="M368.831 247.818C363.748 248.473 356.913 248.453 355.458 247.792C354.35 247.289 353.666 245.086 353.402 244.064C353.307 244.079 353.253 244.087 353.253 244.087C353.253 244.087 353.977 247.681 355.433 248.342C356.888 249.002 363.722 249.022 368.804 248.368C370.272 248.179 370.716 247.596 370.595 246.827C370.447 247.318 369.922 247.678 368.831 247.818Z" fill="black" fill-opacity="0.4"/>
<path d="M242.768 243.763C242.768 243.763 246.556 243.188 247.604 242.235C248.652 241.282 253.238 239.742 253.681 241.014C254.122 242.287 260.182 246.823 255.893 247.376C251.603 247.928 245.836 247.912 244.607 247.354C243.379 246.796 242.768 243.763 242.768 243.763Z" fill="#A8A8A8" fill-opacity="0.4"/>
<path opacity="0.2" d="M255.915 246.912C251.625 247.464 245.857 247.448 244.629 246.89C243.694 246.466 243.116 244.607 242.894 243.744C242.814 243.757 242.768 243.764 242.768 243.764C242.768 243.764 243.379 246.796 244.607 247.355C245.836 247.912 251.603 247.929 255.893 247.377C257.132 247.217 257.506 246.725 257.403 246.076C257.279 246.49 256.836 246.794 255.915 246.912Z" fill="black" fill-opacity="0.4"/>
<path opacity="0.1" d="M198.46 259.595C198.46 265.778 181.903 263.865 161.631 263.865C141.357 263.865 125.046 265.778 125.046 259.595C125.046 253.41 141.601 252.065 161.874 252.065C182.147 252.065 198.46 253.41 198.46 259.595Z" fill="black" fill-opacity="0.4"/>
<path d="M172.67 225.628C174.742 226.282 176.675 227.314 178.368 228.672C178.496 228.751 178.588 228.877 178.627 229.022C178.671 229.35 178.233 229.483 177.914 229.575C176.979 229.843 176.381 230.72 175.692 231.407C175.004 232.094 173.896 232.633 173.093 232.084C172.882 231.922 172.698 231.729 172.548 231.51L169.153 227.087C170.303 226.444 171.514 225.914 172.767 225.503" fill="#F1F1F1"/>
<path d="M151.718 151.875H167.905C169.023 151.875 169.93 152.813 169.93 153.969V188.707C169.93 189.864 169.023 190.802 167.905 190.802H151.718C150.599 190.802 149.693 189.864 149.693 188.707V153.969C149.693 152.813 150.599 151.875 151.718 151.875Z" fill="#FD8369"/>
<path d="M168.19 254.449V258.988H180.103V257.067L172.723 253.56L168.19 254.449Z" fill="#333333"/>
<path d="M142.347 250.098C141.744 251.494 140.322 255.113 140.322 255.113L146.266 258.98H151.653L152.284 256.844L145.517 251.486L142.347 250.098Z" fill="#333333"/>
<path d="M162.938 151.004C160.163 151.004 157.915 148.07 157.915 144.451C157.915 140.831 160.163 137.897 162.938 137.897C165.712 137.897 167.961 140.831 167.961 144.451C167.961 148.07 165.712 151.004 162.938 151.004Z" fill="#DE8E68"/>
<path d="M166.598 132.747C167.256 131.811 169.113 132.022 170.746 133.239C171.365 133.69 171.891 134.264 172.293 134.927C172.345 134.903 172.403 134.889 172.461 134.887C173.254 134.887 186.438 142.183 186.313 145.549C186.188 148.915 181.765 154.312 180.222 155.348C180.222 155.348 173.254 151.982 173.629 150.901C174.004 149.82 178.016 146.362 178.72 145.678C177.893 145.231 171.275 138.447 170.527 137.679C169.742 137.505 169.003 137.159 168.359 136.664C166.729 135.446 165.938 133.693 166.598 132.747Z" fill="#DE8E68"/>
<path d="M170.383 161.252C168.864 159.988 171.379 149.389 174.073 149.129C176.768 148.869 181.468 154.122 181.279 155.613C181.089 157.104 174.22 164.429 170.383 161.252Z" fill="#F8BB00"/>
<path d="M176.412 186.629C176.412 188.374 175.568 248.778 174.049 254.016C172.699 254.714 169.156 254.889 167.975 254.365C166.794 253.842 159.256 187.586 159.256 184.678C159.256 181.769 176.412 186.629 176.412 186.629Z" fill="#200D59"/>
<path d="M146.151 252.128C147.763 249.51 168.745 198.659 170.391 186.121C168.668 184.74 155.847 182.539 154.809 185.045C153.771 187.552 141.31 249.533 141.737 250.337C142.164 251.142 144.939 252.397 146.151 252.128Z" fill="#002883"/>
<path d="M162.867 152.934C151.983 152.934 152.658 184.096 155.02 186.016C157.383 187.936 175.86 188.024 177.042 186.627C178.222 185.231 181.013 152.934 162.867 152.934Z" fill="#FFD12E"/>
<path d="M154.949 142.227C154.949 140.899 156.177 139.941 156.177 139.203C156.177 138.467 155.756 137.147 156.696 136.202C157.839 135.056 159.659 135.534 161.289 135.534C162.821 135.534 163.667 133.692 165.757 133.692C167.151 133.692 166.974 135.563 167.495 136.028C167.882 136.378 170.894 137.047 170.894 138.472C170.894 140.064 170.854 142.201 167.657 142.201C167.445 141.436 166.645 139.757 165.734 139.01C165.265 139.22 162.696 140.316 162.06 140.509C161.425 140.703 160.495 143.521 159.509 143.862C158.523 144.201 158.461 146.078 157.741 145.998C157.02 145.917 154.949 145.604 154.949 142.227Z" fill="#FD8369"/>
<path d="M158.614 146.343C157.881 146.343 157.286 145.728 157.286 144.969C157.286 144.21 157.881 143.595 158.614 143.595C159.347 143.595 159.942 144.21 159.942 144.969C159.942 145.728 159.347 146.343 158.614 146.343Z" fill="#DE8E68"/>
<path d="M160.427 155.378C160.639 156.138 165.102 155.216 165.016 154.357L164.253 146.728L158.876 147.926C158.876 147.926 160.21 154.623 160.427 155.378Z" fill="#DE8E68"/>
<path d="M130.028 159.471L148.901 256.268" stroke="#333333" stroke-width="7" stroke-miterlimit="10" stroke-linecap="round"/>
<path d="M133.055 186.182C133.558 185.656 134.207 185.304 134.911 185.178C137.163 181.419 144.811 169.834 148.184 165.625C150.616 167.432 153.584 170.592 153.584 170.592C152.344 172.03 143.055 183.4 138.112 187.859C138.115 188.326 138.027 188.79 137.853 189.221C137.68 189.651 137.423 190.041 137.1 190.368C135.85 191.663 133.929 191.775 132.812 190.621C131.696 189.467 131.805 187.477 133.055 186.182Z" fill="#DE8E68"/>
<path d="M158.593 158.041C154.228 154.683 147.031 162.801 147.15 164.937C147.268 167.071 152.799 171.806 154.691 171.811C157.001 171.814 162.309 160.898 158.593 158.041Z" fill="#FFD12E"/>
<path d="M25.9302 192.229C25.9302 214.063 39.6521 231.731 56.6096 231.731L25.9302 192.229Z" fill="#007458"/>
<path d="M56.6113 231.73C56.6113 209.651 71.924 191.785 90.8473 191.785L56.6113 231.73Z" fill="#003E31"/>
<path d="M37.0466 194.209C37.0466 214.95 45.7968 231.731 56.6104 231.731L37.0466 194.209Z" fill="#2EC396"/>
<path d="M56.6113 231.729C56.6113 203.517 74.3105 180.688 96.1829 180.688L56.6113 231.729Z" fill="#005A45"/>
<path d="M50.1567 232.01C50.1567 232.01 54.5076 231.876 55.8189 230.943C57.1301 230.012 62.5116 228.898 62.8369 230.393C63.1621 231.888 69.3754 237.827 64.4632 237.867C59.5512 237.907 53.0498 237.104 51.741 236.307C50.4324 235.512 50.1567 232.01 50.1567 232.01Z" fill="#A8A8A8" fill-opacity="0.4"/>
<path d="M20.1562 240.583C20.1562 240.583 23.106 240.134 23.9215 239.393C24.737 238.651 28.3073 237.451 28.6518 238.442C28.9963 239.432 33.7137 242.964 30.3743 243.394C27.0349 243.824 22.5446 243.811 21.5885 243.378C20.6323 242.943 20.1562 240.583 20.1562 240.583Z" fill="#A8A8A8" fill-opacity="0.4"/>
<path d="M322.273 209.648C322.273 223.634 314.985 234.951 305.979 234.951L322.273 209.648Z" fill="#007458"/>
<path d="M305.978 234.951C305.978 220.965 297.475 209.648 286.968 209.648L305.978 234.951Z" fill="#003E31"/>
<path d="M316.842 211.455C316.842 224.441 311.983 234.95 305.979 234.95L316.842 211.455Z" fill="#2EC396"/>
<path d="M305.978 234.95C305.978 216.969 296.261 202.419 284.252 202.419L305.978 234.95Z" fill="#005A45"/>
</g>
<defs>
<clipPath id="clip0">
<rect width="430" height="272" fill="white"/>
</clipPath>
</defs>
</svg>
