<svg width="697" height="524" viewBox="0 0 697 524" fill="none" xmlns="http://www.w3.org/2000/svg">
<mask id="mask0" mask-type="alpha" maskUnits="userSpaceOnUse" x="0" y="0" width="697" height="524">
<rect x="0.5" y="0.5" width="696" height="523" fill="#C4C4C4" stroke="white"/>
</mask>
<g mask="url(#mask0)">
<g filter="url(#filter0_d)">
<g opacity="0.7">
<g opacity="0.7" filter="url(#filter1_d)">
<path d="M465.485 228.381H411.896L352.123 194.029C344.566 189.563 331.168 190.25 322.237 195.403L264.868 228.724H211.279V264.794C210.936 267.886 212.653 270.634 216.432 272.695L324.298 335.216C331.855 339.682 345.253 338.995 354.184 333.842L457.928 274.069C462.394 271.321 465.142 267.886 465.142 264.794V228.381H465.485Z" fill="url(#paint0_linear)"/>
</g>
<path opacity="0.7" d="M322.068 299.031L214.202 236.854C206.645 232.388 207.332 224.83 216.263 219.677L320.007 159.905C328.938 154.752 342.336 154.065 349.893 158.531L457.759 221.052C465.317 225.517 464.63 233.075 455.698 238.228L351.954 298C343.366 303.153 329.969 303.497 322.068 299.031Z" fill="url(#paint1_linear)"/>
<path opacity="0.7" d="M460.333 220.137L352.467 157.616C348.345 155.211 342.848 154.524 337.352 154.524C341.474 154.868 345.253 155.899 348.345 157.616L456.211 220.137C463.768 224.603 463.081 232.16 454.149 237.313L350.406 297.086C346.283 299.491 340.787 300.865 335.634 301.208C342.161 301.552 349.375 300.178 354.528 297.086L458.272 237.313C466.86 232.504 467.89 224.603 460.333 220.137Z" fill="#EBC0FF"/>
<path opacity="0.7" d="M329.451 298.459L221.241 236.282C213.684 231.816 214.371 224.259 223.302 219.106L327.046 159.333C331.168 156.928 336.321 155.554 341.817 155.211C335.291 154.867 328.077 156.241 322.237 159.333L218.493 219.106C209.562 224.259 208.531 231.816 216.432 236.282L324.298 298.803C328.42 301.208 333.916 302.238 339.756 301.551C335.978 301.208 332.199 300.177 329.451 298.459Z" fill="#33BBFF"/>
<g opacity="0.7" filter="url(#filter2_b)">
<path d="M322.068 283.352L214.202 221.174C206.645 216.709 207.332 209.151 216.263 203.998L320.007 144.225C328.938 139.073 342.336 138.386 349.893 142.851L457.759 205.372C465.317 209.838 464.63 217.396 455.698 222.548L351.954 282.321C343.366 287.474 329.969 287.818 322.068 283.352Z" fill="url(#paint2_linear)"/>
</g>
<g opacity="0.7" filter="url(#filter3_b)">
<path d="M322.068 269.763L214.202 207.585C206.645 203.119 207.332 195.562 216.263 190.409L320.007 130.636C328.938 125.483 342.336 124.796 349.893 129.262L457.759 191.783C465.317 196.249 464.63 203.806 455.698 208.959L351.954 268.732C343.366 273.885 329.969 274.228 322.068 269.763Z" fill="url(#paint3_linear)"/>
</g>
</g>
<g opacity="0.7" filter="url(#filter4_b)">
<path fill-rule="evenodd" clip-rule="evenodd" d="M89.0826 249.122L307.601 375.057C323.607 384.102 350.748 383.406 368.146 372.97L578.313 251.905C596.407 241.469 597.799 226.162 582.489 217.117L363.97 90.4864C348.66 81.4414 321.519 82.833 303.426 93.2696L93.2582 214.334C75.1643 224.77 73.7724 240.077 89.0826 249.122ZM140.917 246.013L314.973 346.345C327.722 353.551 349.341 352.997 363.199 344.682L530.603 248.231C545.016 239.916 546.124 227.721 533.929 220.515L359.873 119.628C347.678 112.422 326.059 113.531 311.647 121.846L144.243 218.297C129.83 226.612 128.722 238.807 140.917 246.013Z" fill="url(#paint4_linear)"/>
</g>
<g opacity="0.7" filter="url(#filter5_b)">
<path fill-rule="evenodd" clip-rule="evenodd" d="M-52.4304 216.319L270.801 14.1141C294.477 -0.408874 334.624 0.708313 360.359 17.4656L671.238 211.85C698.002 228.608 700.061 253.185 677.414 267.708L354.183 471.03C331.536 485.553 291.389 483.319 264.625 466.561L-46.2539 272.177C-73.0183 255.419 -75.0772 230.842 -52.4304 216.319ZM24.2425 221.311L281.706 60.2149C300.565 48.6445 332.543 49.5345 353.041 62.885L600.666 217.751C621.984 231.102 623.624 250.682 605.585 262.253L348.122 424.239C330.083 435.809 298.105 434.029 276.786 420.679L29.1622 265.813C7.84356 252.462 6.20361 232.882 24.2425 221.311Z" fill="url(#paint5_radial)"/>
</g>
<g opacity="0.7" filter="url(#filter6_b)">
<path fill-rule="evenodd" clip-rule="evenodd" d="M882.714 235.816L503.095 15.0429C475.288 -0.813721 428.138 0.406067 397.913 18.7022L32.8016 230.937C1.36823 249.233 -1.0495 276.067 25.548 291.924L405.167 513.917C431.765 529.773 478.915 527.334 510.348 509.038L875.46 296.803C906.894 278.507 909.312 251.673 882.714 235.816ZM792.666 241.266L490.288 65.3769C468.139 52.7439 430.582 53.7157 406.508 68.2922L115.685 237.379C90.6474 251.956 88.7216 273.335 109.907 285.968L412.285 462.829C433.471 475.462 471.028 473.518 496.065 458.942L786.888 289.855C811.925 275.278 813.851 253.899 792.666 241.266Z" fill="url(#paint6_radial)"/>
</g>
<g filter="url(#filter7_d)">
<path d="M285.475 190.263L297.546 183.294L298.868 184.057L296.528 193.904L295.935 193.757L305.802 188.06L307.446 189.01L295.376 195.979L294.036 195.206L296.393 185.388L296.986 185.516L287.119 191.212L285.475 190.263ZM301.597 199.708C300.75 199.219 300.19 198.687 299.919 198.113C299.659 197.545 299.687 196.974 300.004 196.4C300.332 195.819 300.953 195.264 301.869 194.736C302.762 194.22 303.711 193.868 304.717 193.679C305.723 193.49 306.717 193.47 307.701 193.62C308.695 193.777 309.617 194.1 310.464 194.589C311.301 195.072 311.849 195.597 312.109 196.165C312.38 196.739 312.352 197.317 312.024 197.897C311.707 198.485 311.103 199.036 310.21 199.552C309.294 200.08 308.328 200.436 307.311 200.619C306.316 200.801 305.322 200.814 304.327 200.658C303.344 200.508 302.434 200.191 301.597 199.708ZM302.954 198.925C303.722 199.369 304.576 199.561 305.514 199.503C306.463 199.451 307.446 199.131 308.464 198.544C309.447 197.976 309.984 197.418 310.074 196.87C310.187 196.322 309.86 195.826 309.091 195.382C308.322 194.938 307.452 194.742 306.48 194.795C305.531 194.847 304.564 195.157 303.581 195.725C302.564 196.312 302.004 196.876 301.903 197.418C301.812 197.966 302.163 198.468 302.954 198.925ZM315.985 208.015C315.126 207.519 314.561 206.984 314.29 206.41C314.03 205.842 314.058 205.271 314.375 204.697C314.691 204.123 315.296 203.578 316.189 203.062C317.082 202.547 318.037 202.198 319.054 202.015C320.082 201.826 321.1 201.806 322.105 201.956C323.123 202.113 324.066 202.442 324.937 202.945C325.524 203.284 325.999 203.669 326.361 204.1C326.722 204.53 326.903 204.948 326.903 205.353L325.14 205.764C325.061 205.353 324.897 204.984 324.648 204.658C324.411 204.338 324.083 204.057 323.665 203.816C322.851 203.346 321.942 203.128 320.936 203.16C319.941 203.199 318.952 203.503 317.969 204.07C316.985 204.638 316.466 205.206 316.409 205.774C316.353 206.341 316.737 206.863 317.562 207.34C317.969 207.575 318.455 207.764 319.02 207.907C319.585 208.051 320.224 208.146 320.936 208.191L320.224 209.209C319.523 209.196 318.794 209.082 318.037 208.867C317.279 208.651 316.596 208.367 315.985 208.015ZM320.851 210.687L333.329 203.483L335.041 204.472L322.564 211.676L320.851 210.687ZM328.244 215.093C327.487 214.655 326.995 214.169 326.769 213.634C326.565 213.099 326.633 212.551 326.972 211.99C327.334 211.429 327.961 210.89 328.854 210.375C329.747 209.859 330.685 209.5 331.668 209.298C332.663 209.089 333.629 209.04 334.567 209.151C335.517 209.269 336.365 209.543 337.111 209.973C337.868 210.411 338.326 210.89 338.484 211.412C338.665 211.934 338.512 212.446 338.026 212.949L337.687 212.91L339.738 211.725L341.434 212.704L332.889 217.637L331.194 216.659L333.279 215.455L333.398 215.621C332.527 215.902 331.635 215.993 330.719 215.895C329.826 215.797 329.001 215.53 328.244 215.093ZM330.007 214.544C330.776 214.988 331.635 215.177 332.584 215.112C333.545 215.053 334.517 214.74 335.5 214.172C336.483 213.605 337.026 213.044 337.127 212.489C337.24 211.941 336.913 211.445 336.144 211.001C335.364 210.551 334.477 210.358 333.482 210.424C332.51 210.489 331.538 210.802 330.566 211.363C329.594 211.924 329.058 212.482 328.956 213.037C328.877 213.592 329.227 214.094 330.007 214.544ZM338.27 220.881C336.778 220.02 335.958 219.129 335.811 218.209L337.575 217.798C337.676 218.261 337.891 218.685 338.219 219.07C338.569 219.455 339.038 219.817 339.626 220.157C340.214 220.496 340.756 220.698 341.254 220.764C341.762 220.822 342.197 220.747 342.559 220.538C342.864 220.362 342.994 220.163 342.949 219.941C342.926 219.719 342.728 219.429 342.356 219.07L341.254 218.042C340.666 217.52 340.372 217.031 340.372 216.574C340.395 216.117 340.705 215.716 341.304 215.37C341.813 215.077 342.401 214.9 343.068 214.842C343.734 214.783 344.429 214.838 345.153 215.008C345.888 215.171 346.594 215.449 347.272 215.84C347.882 216.192 348.363 216.581 348.713 217.005C349.075 217.423 349.273 217.85 349.306 218.287L347.577 218.679C347.487 218.248 347.3 217.86 347.018 217.514C346.758 217.168 346.402 216.865 345.95 216.604C345.396 216.284 344.859 216.098 344.339 216.046C343.83 215.987 343.39 216.065 343.017 216.281C342.712 216.457 342.559 216.649 342.559 216.858C342.582 217.067 342.762 217.328 343.101 217.641L344.186 218.679C344.831 219.259 345.147 219.775 345.136 220.225C345.125 220.675 344.808 221.08 344.186 221.439C343.429 221.876 342.514 222.046 341.44 221.948C340.389 221.85 339.332 221.494 338.27 220.881ZM346.713 225.756C345.221 224.895 344.402 224.004 344.255 223.084L346.018 222.673C346.12 223.136 346.335 223.56 346.663 223.945C347.013 224.33 347.482 224.692 348.07 225.032C348.657 225.371 349.2 225.573 349.697 225.638C350.206 225.697 350.641 225.622 351.003 225.413C351.308 225.237 351.438 225.038 351.393 224.816C351.37 224.594 351.172 224.304 350.799 223.945L349.697 222.917C349.109 222.395 348.816 221.906 348.816 221.449C348.838 220.992 349.149 220.591 349.748 220.245C350.257 219.952 350.844 219.775 351.511 219.717C352.178 219.658 352.873 219.713 353.597 219.883C354.331 220.046 355.038 220.324 355.716 220.715C356.326 221.067 356.806 221.456 357.157 221.88C357.518 222.297 357.716 222.725 357.75 223.162L356.021 223.554C355.93 223.123 355.744 222.735 355.461 222.389C355.201 222.043 354.845 221.74 354.393 221.479C353.84 221.159 353.303 220.973 352.783 220.921C352.274 220.862 351.833 220.94 351.46 221.156C351.155 221.332 351.003 221.524 351.003 221.733C351.025 221.942 351.206 222.203 351.545 222.516L352.63 223.554C353.274 224.134 353.591 224.65 353.58 225.1C353.568 225.55 353.252 225.955 352.63 226.314C351.873 226.751 350.957 226.921 349.884 226.823C348.833 226.725 347.776 226.369 346.713 225.756ZM276.757 205.89L278.079 205.127L283.436 208.22L282.114 208.983L276.757 205.89ZM286.132 206.976C285.906 206.742 285.663 206.549 285.403 206.399C285.143 206.249 284.855 206.141 284.538 206.076C284.233 206.004 283.9 206.001 283.538 206.066C283.177 206.131 282.792 206.282 282.385 206.516L272.891 211.998L271.179 211.009L280.809 205.45C281.769 204.895 282.73 204.614 283.691 204.608C284.674 204.601 285.601 204.849 286.471 205.352C286.686 205.476 286.884 205.603 287.065 205.733C287.245 205.864 287.404 206.007 287.539 206.164L286.132 206.976ZM280.109 216.302C279.261 215.812 278.701 215.28 278.43 214.706C278.17 214.138 278.198 213.568 278.515 212.993C278.843 212.413 279.464 211.858 280.38 211.329C281.273 210.814 282.222 210.461 283.228 210.272C284.234 210.083 285.229 210.063 286.212 210.213C287.206 210.37 288.128 210.693 288.975 211.182C289.812 211.665 290.36 212.191 290.62 212.758C290.891 213.333 290.863 213.91 290.535 214.491C290.219 215.078 289.614 215.63 288.721 216.145C287.805 216.674 286.839 217.029 285.822 217.212C284.827 217.395 283.833 217.408 282.838 217.251C281.855 217.101 280.945 216.785 280.109 216.302ZM281.465 215.519C282.233 215.962 283.087 216.155 284.025 216.096C284.974 216.044 285.958 215.724 286.975 215.137C287.958 214.569 288.495 214.011 288.585 213.463C288.698 212.915 288.371 212.419 287.602 211.975C286.833 211.532 285.963 211.336 284.991 211.388C284.042 211.44 283.075 211.75 282.092 212.318C281.075 212.905 280.515 213.47 280.414 214.011C280.323 214.559 280.674 215.062 281.465 215.519ZM289.315 221.617C288.287 221.023 287.795 220.413 287.84 219.787C287.897 219.154 288.496 218.508 289.637 217.849L294.876 214.824L296.588 215.813L291.367 218.828C290.666 219.232 290.287 219.614 290.231 219.973C290.197 220.332 290.479 220.684 291.078 221.03C291.768 221.428 292.548 221.617 293.418 221.598C294.3 221.585 295.113 221.363 295.859 220.932L300.657 218.162L302.369 219.151L293.825 224.084L292.163 223.125L293.977 222.077L294.249 222.155C293.356 222.397 292.48 222.465 291.621 222.361C290.762 222.257 289.993 222.009 289.315 221.617ZM296.299 225.512L302.437 221.969C302.832 221.741 303.222 221.503 303.606 221.255C304.002 221.013 304.369 220.762 304.708 220.501L306.336 221.441L304.759 222.527L304.488 222.488C305.403 222.246 306.302 222.184 307.184 222.302C308.088 222.419 308.896 222.684 309.608 223.095C311.654 224.276 311.529 225.529 309.235 226.853L303.929 229.917L302.216 228.928L307.455 225.904C308.19 225.48 308.579 225.085 308.625 224.72C308.67 224.354 308.387 223.995 307.777 223.643C307.042 223.219 306.229 223.01 305.336 223.016C304.454 223.03 303.635 223.255 302.877 223.692L298.012 226.501L296.299 225.512ZM314.182 235.837L312.486 234.858L314.724 233.566L314.69 233.82C313.82 234.101 312.927 234.192 312.012 234.094C311.119 233.997 310.294 233.729 309.536 233.292C308.79 232.861 308.31 232.375 308.095 231.833C307.903 231.292 307.982 230.737 308.333 230.169C308.694 229.595 309.327 229.047 310.231 228.525C311.124 228.009 312.051 227.651 313.012 227.448C313.984 227.252 314.933 227.213 315.86 227.331C316.798 227.455 317.646 227.735 318.403 228.173C319.16 228.61 319.618 229.089 319.776 229.611C319.946 230.14 319.793 230.652 319.319 231.148L318.895 231.138L324.947 227.644L326.659 228.633L314.182 235.837ZM311.299 232.744C312.068 233.187 312.927 233.377 313.876 233.311C314.837 233.253 315.815 232.936 316.809 232.362C317.77 231.807 318.301 231.253 318.403 230.698C318.527 230.143 318.205 229.644 317.437 229.2C316.657 228.75 315.781 228.551 314.809 228.603C313.859 228.655 312.904 228.959 311.944 229.514C310.949 230.088 310.395 230.656 310.282 231.217C310.181 231.784 310.52 232.293 311.299 232.744Z" fill="white"/>
<rect width="57.6921" height="57.6921" rx="28.8461" transform="matrix(0.866025 0.5 -0.866025 0.5 365.375 149.432)" fill="#CA2C2C"/>
<g clip-path="url(#clip0)">
<path d="M369.497 180.658L384.953 180.658C386.661 180.658 388.045 179.859 388.044 178.874L388.044 177.684C388.044 176.698 386.66 175.898 384.953 175.899L369.497 175.899L369.498 166.975C369.498 165.989 368.114 165.189 366.407 165.19L364.345 165.189C362.637 165.189 361.253 165.989 361.254 166.974L361.254 175.899L345.798 175.899C344.09 175.899 342.705 176.699 342.707 177.684L342.707 178.874C342.707 179.86 344.091 180.659 345.798 180.658L361.254 180.658L361.254 189.582C361.254 190.568 362.639 191.367 364.345 191.367L366.406 191.367C368.114 191.367 369.498 190.567 369.497 189.582L369.497 180.658Z" fill="white"/>
</g>
</g>
</g>
</g>
<defs>
<filter id="filter0_d" x="-72" y="4" width="977" height="528.431" filterUnits="userSpaceOnUse" color-interpolation-filters="sRGB">
<feFlood flood-opacity="0" result="BackgroundImageFix"/>
<feColorMatrix in="SourceAlpha" type="matrix" values="0 0 0 0 0 0 0 0 0 0 0 0 0 0 0 0 0 0 127 0"/>
<feOffset dy="4"/>
<feGaussianBlur stdDeviation="2"/>
<feColorMatrix type="matrix" values="0 0 0 0 0 0 0 0 0 0 0 0 0 0 0 0 0 0 0.25 0"/>
<feBlend mode="normal" in2="BackgroundImageFix" result="effect1_dropShadow"/>
<feBlend mode="normal" in="SourceGraphic" in2="effect1_dropShadow" result="shape"/>
</filter>
<filter id="filter1_d" x="187.198" y="171.837" width="302.326" height="195.187" filterUnits="userSpaceOnUse" color-interpolation-filters="sRGB">
<feFlood flood-opacity="0" result="BackgroundImageFix"/>
<feColorMatrix in="SourceAlpha" type="matrix" values="0 0 0 0 0 0 0 0 0 0 0 0 0 0 0 0 0 0 127 0"/>
<feOffset dy="4.80768"/>
<feGaussianBlur stdDeviation="12.0192"/>
<feColorMatrix type="matrix" values="0 0 0 0 0.921269 0 0 0 0 0.754167 0 0 0 0 1 0 0 0 1 0"/>
<feBlend mode="normal" in2="BackgroundImageFix" result="effect1_dropShadow"/>
<feBlend mode="normal" in="SourceGraphic" in2="effect1_dropShadow" result="shape"/>
</filter>
<filter id="filter2_b" x="40.7376" y="-28.3786" width="590.486" height="483.109" filterUnits="userSpaceOnUse" color-interpolation-filters="sRGB">
<feFlood flood-opacity="0" result="BackgroundImageFix"/>
<feGaussianBlur in="BackgroundImage" stdDeviation="84.1344"/>
<feComposite in2="SourceAlpha" operator="in" result="effect1_backgroundBlur"/>
<feBlend mode="normal" in="SourceGraphic" in2="effect1_backgroundBlur" result="shape"/>
</filter>
<filter id="filter3_b" x="40.7376" y="-41.968" width="590.486" height="483.109" filterUnits="userSpaceOnUse" color-interpolation-filters="sRGB">
<feFlood flood-opacity="0" result="BackgroundImageFix"/>
<feGaussianBlur in="BackgroundImage" stdDeviation="84.1344"/>
<feComposite in2="SourceAlpha" operator="in" result="effect1_backgroundBlur"/>
<feBlend mode="normal" in="SourceGraphic" in2="effect1_backgroundBlur" result="shape"/>
</filter>
<filter id="filter4_b" x="-89.7119" y="-83.78" width="850.995" height="633.405" filterUnits="userSpaceOnUse" color-interpolation-filters="sRGB">
<feFlood flood-opacity="0" result="BackgroundImageFix"/>
<feGaussianBlur in="BackgroundImage" stdDeviation="84.1344"/>
<feComposite in2="SourceAlpha" operator="in" result="effect1_backgroundBlur"/>
<feBlend mode="normal" in="SourceGraphic" in2="effect1_backgroundBlur" result="shape"/>
</filter>
<filter id="filter5_b" x="-236.269" y="-164.269" width="1097.52" height="813.198" filterUnits="userSpaceOnUse" color-interpolation-filters="sRGB">
<feFlood flood-opacity="0" result="BackgroundImageFix"/>
<feGaussianBlur in="BackgroundImage" stdDeviation="84.1344"/>
<feComposite in2="SourceAlpha" operator="in" result="effect1_backgroundBlur"/>
<feBlend mode="normal" in="SourceGraphic" in2="effect1_backgroundBlur" result="shape"/>
</filter>
<filter id="filter6_b" x="-161.007" y="-164.269" width="1230.28" height="856.969" filterUnits="userSpaceOnUse" color-interpolation-filters="sRGB">
<feFlood flood-opacity="0" result="BackgroundImageFix"/>
<feGaussianBlur in="BackgroundImage" stdDeviation="84.1344"/>
<feComposite in2="SourceAlpha" operator="in" result="effect1_backgroundBlur"/>
<feBlend mode="normal" in="SourceGraphic" in2="effect1_backgroundBlur" result="shape"/>
</filter>
<filter id="filter7_d" x="266.372" y="157.881" width="139.141" height="97.1864" filterUnits="userSpaceOnUse" color-interpolation-filters="sRGB">
<feFlood flood-opacity="0" result="BackgroundImageFix"/>
<feColorMatrix in="SourceAlpha" type="matrix" values="0 0 0 0 0 0 0 0 0 0 0 0 0 0 0 0 0 0 127 0"/>
<feOffset dy="14.423"/>
<feGaussianBlur stdDeviation="2.40384"/>
<feColorMatrix type="matrix" values="0 0 0 0 0 0 0 0 0 0 0 0 0 0 0 0 0 0 0.25 0"/>
<feBlend mode="normal" in2="BackgroundImageFix" result="effect1_dropShadow"/>
<feBlend mode="normal" in="SourceGraphic" in2="effect1_dropShadow" result="shape"/>
</filter>
<linearGradient id="paint0_linear" x1="211.476" y1="271.402" x2="460.259" y2="265.131" gradientUnits="userSpaceOnUse">
<stop stop-color="#A31FA9"/>
<stop offset="0.0001" stop-color="#2B2338"/>
<stop offset="1" stop-color="#0D1117"/>
</linearGradient>
<linearGradient id="paint1_linear" x1="264.408" y1="256.442" x2="455.115" y2="275.98" gradientUnits="userSpaceOnUse">
<stop stop-color="#33BBFF"/>
<stop offset="0.75" stop-color="#A1856E"/>
</linearGradient>
<linearGradient id="paint2_linear" x1="206.97" y1="213.112" x2="445.353" y2="272.099" gradientUnits="userSpaceOnUse">
<stop stop-color="#8D139B"/>
<stop offset="0.1651" stop-color="#851BA1"/>
<stop offset="0.4284" stop-color="#6E33B2"/>
<stop offset="0.7551" stop-color="#4958CD"/>
<stop offset="1" stop-color="#2979E4"/>
</linearGradient>
<linearGradient id="paint3_linear" x1="206.97" y1="199.523" x2="445.353" y2="258.509" gradientUnits="userSpaceOnUse">
<stop stop-color="#ED5C0C"/>
<stop offset="1" stop-color="#6E33B2"/>
</linearGradient>
<linearGradient id="paint4_linear" x1="223.118" y1="261.668" x2="245.278" y2="317.85" gradientUnits="userSpaceOnUse">
<stop stop-color="#8D139B" stop-opacity="0"/>
<stop offset="0.625" stop-color="#8D139B"/>
<stop offset="1" stop-color="#2979E4"/>
</linearGradient>
<radialGradient id="paint5_radial" cx="0" cy="0" r="1" gradientUnits="userSpaceOnUse" gradientTransform="translate(629.22 242.33) rotate(-177.582) scale(235.404 147.981)">
<stop stop-color="#8D139B" stop-opacity="0"/>
<stop offset="0.0001" stop-color="#2979E4"/>
<stop offset="1" stop-color="#8D139B" stop-opacity="0"/>
</radialGradient>
<radialGradient id="paint6_radial" cx="0" cy="0" r="1" gradientUnits="userSpaceOnUse" gradientTransform="translate(76.5627 288.371) rotate(0.29712) scale(552.978 325.284)">
<stop stop-color="#8D139B" stop-opacity="0"/>
<stop offset="0.0001" stop-color="#2979E4"/>
<stop offset="0.647959" stop-color="#8D139B" stop-opacity="0"/>
</radialGradient>
<clipPath id="clip0">
<rect width="28.8461" height="28.8461" fill="white" transform="matrix(0.866025 0.5 -0.866025 0.5 365.375 163.855)"/>
</clipPath>
</defs>
</svg>
