<svg width="79" height="79" viewBox="0 0 79 79" fill="none" xmlns="http://www.w3.org/2000/svg">
<path d="M39.2161 5.18587C21.688 5.18587 22.7964 12.7649 22.7964 12.7649V20.6402H39.4654V23.109H16.158C16.158 23.109 4.9375 21.7265 4.9375 39.5138C4.9375 57.3012 14.8446 56.5778 14.8446 56.5778H20.5647V48.2804C20.5647 48.2804 20.2437 38.3733 30.1928 38.3733H46.8865C46.8865 38.3733 56.1986 38.5214 56.1986 29.3574V14.3202C56.1986 14.3202 57.6107 5.15625 39.3074 5.15625L39.2161 5.18587ZM30.0027 10.4616C30.5953 10.4466 31.179 10.6078 31.6801 10.9246C32.1811 11.2414 32.5769 11.6997 32.8175 12.2414C33.0581 12.7832 33.1326 13.3842 33.0316 13.9683C32.9306 14.5524 32.6586 15.0935 32.2501 15.523C31.8416 15.9526 31.3149 16.2514 30.7366 16.3816C30.1583 16.5118 29.5544 16.4676 29.0012 16.2545C28.448 16.0415 27.9704 15.6692 27.6288 15.1847C27.2873 14.7002 27.097 14.1253 27.0822 13.5327V13.4833C27.0822 12.6885 27.3979 11.9262 27.96 11.3641C28.5221 10.802 29.2844 10.4863 30.0793 10.4863L30.0027 10.4616Z" fill="#474747"/>
<path d="M39.7103 73.8412C57.2384 73.8412 56.13 66.2374 56.13 66.2374V58.3868H39.4634V55.9181H62.8425C62.8425 55.9181 74.063 57.1722 74.063 39.4885C74.063 21.8049 64.1559 22.4245 64.1559 22.4245H58.3617V30.6134C58.3617 30.6134 58.6827 40.5205 48.7336 40.5205H32.0325C32.0325 40.5205 22.713 40.3798 22.713 49.5438V64.6821C22.713 64.6821 21.3009 73.8461 39.6042 73.8461H39.7029L39.7103 73.8412ZM48.9237 68.5408C48.3311 68.5557 47.7474 68.3946 47.2464 68.0778C46.7453 67.761 46.3495 67.3027 46.1089 66.7609C45.8684 66.2192 45.7939 65.6182 45.8949 65.0341C45.9958 64.45 46.2678 63.9089 46.6763 63.4793C47.0848 63.0498 47.6115 62.751 48.1898 62.6208C48.7681 62.4906 49.3721 62.5348 49.9252 62.7478C50.4784 62.9609 50.956 63.3332 51.2976 63.8177C51.6392 64.3022 51.8294 64.877 51.8442 65.4697V65.5437C51.8442 66.3386 51.5285 67.1009 50.9664 67.663C50.4044 68.225 49.642 68.5408 48.8472 68.5408H48.9212H48.9237Z" fill="#474747"/>
</svg>
