<svg width="854" height="855" viewBox="0 0 854 855" fill="none" xmlns="http://www.w3.org/2000/svg">
<path d="M0.311035 427.462C0.311035 191.722 191.416 0.617188 427.156 0.617188V0.617188C662.895 0.617188 854 191.722 854 427.462V427.462C854 663.202 662.895 854.306 427.156 854.306V854.306C191.416 854.306 0.311035 663.202 0.311035 427.462V427.462Z" fill="#37AEA2"/>
<g clip-path="url(#clip0)">
<path d="M377.228 586.953C373.154 591.051 367.595 593.338 361.82 593.338C356.046 593.338 350.487 591.051 346.412 586.953L223.359 463.88C210.589 451.11 210.589 430.402 223.359 417.656L238.767 402.244C251.542 389.474 272.225 389.474 284.996 402.244L361.82 479.073L569.412 271.477C582.186 258.707 602.889 258.707 615.64 271.477L631.048 286.889C643.818 299.659 643.818 320.363 631.048 333.113L377.228 586.953Z" fill="white"/>
</g>
<defs>
<clipPath id="clip0">
<rect width="426.845" height="426.845" fill="white" transform="translate(213.759 214.032)"/>
</clipPath>
</defs>
</svg>
